<svg xmlns="http://www.w3.org/2000/svg" class="graphdiagram" viewBox="-1533.260374608039 -240.17828420478983 2414.256873089368 1306.045905650429"><g class="layer relationships"><g class="related-pair"><g class="relationship" transform="translate(179.4576873779297,-94.44497108459473) rotate(180)"><path class="relationship" d="M 91.69748694700662 4 L 787.5398411991828 4 L 787.5398411991828 16 L 819.5398411991828 0 L 787.5398411991828 -16 L 787.5398411991828 -4 L 91.69748694700662 -4 Z" fill="rgb(0, 0, 0)" stroke="rgb(51, 51, 51)" stroke-width="0px"/><text class="type" text-anchor="middle" baseline-shift="30%" alignment-baseline="alphabetic" x="-439.6186640730947" y="0" font-size="50px" font-family="'Gill Sans', 'Gill Sans MT', Calibri, sans-serif" transform="rotate(180)">FRIENDS_WITH</text></g></g><g class="related-pair"><g class="relationship" transform="translate(179.4576873779297,-94.44497108459473) rotate(90)"><path class="relationship" d="M 91.69748694700662 4 L 357.61936064598837 4 L 357.61936064598837 16 L 389.61936064598837 0 L 357.61936064598837 -16 L 357.61936064598837 -4 L 91.69748694700662 -4 Z" fill="rgb(0, 0, 0)" stroke="rgb(51, 51, 51)" stroke-width="0px"/><text class="type" text-anchor="middle" baseline-shift="30%" alignment-baseline="alphabetic" x="224.65842379649752" y="0" font-size="50px" font-family="'Gill Sans', 'Gill Sans MT', Calibri, sans-serif">ATTENDED</text></g></g><g class="related-pair"><g class="relationship" transform="translate(-732.6824951171875,-94.44497108459473) rotate(29.945034024602748)"><path class="relationship" d="M 92.60034129593444 4 L 884.8272688946386 4 L 884.8272688946386 16 L 916.8272688946386 0 L 884.8272688946386 -16 L 884.8272688946386 -4 L 92.60034129593444 -4 Z" fill="rgb(0, 0, 0)" stroke="rgb(51, 51, 51)" stroke-width="0px"/><text class="type" text-anchor="middle" baseline-shift="30%" alignment-baseline="alphabetic" x="488.7138050952865" y="0" font-size="50px" font-family="'Gill Sans', 'Gill Sans MT', Calibri, sans-serif">ATTENDED</text></g></g><g class="related-pair"><g class="relationship" transform="translate(179.4576873779297,431.01332092285156) rotate(180)"><path class="relationship" d="M 135.83893136145792 4 L 439.73922327353284 4 L 439.73922327353284 16 L 471.73922327353284 0 L 439.73922327353284 -16 L 439.73922327353284 -4 L 135.83893136145792 -4 Z" fill="rgb(0, 0, 0)" stroke="rgb(51, 51, 51)" stroke-width="0px"/><text class="type" text-anchor="middle" baseline-shift="30%" alignment-baseline="alphabetic" x="-287.7890773174954" y="0" font-size="50px" font-family="'Gill Sans', 'Gill Sans MT', Calibri, sans-serif" transform="rotate(180)">HELD_AT</text></g></g><g class="related-pair"><g class="relationship" transform="translate(179.4576873779297,431.01332092285156) rotate(-45.677820317994254)"><path class="relationship" d="M 135.83893136145792 4 L 416.2700360151137 4 L 416.2700360151137 16 L 448.2700360151137 0 L 416.2700360151137 -16 L 416.2700360151137 -4 L 135.83893136145792 -4 Z" fill="rgb(0, 0, 0)" stroke="rgb(51, 51, 51)" stroke-width="0px"/><text class="type" text-anchor="middle" baseline-shift="30%" alignment-baseline="alphabetic" x="276.0544836882858" y="0" font-size="50px" font-family="'Gill Sans', 'Gill Sans MT', Calibri, sans-serif">ALL_ABOUT</text></g></g><g class="related-pair"><g class="relationship" transform="translate(179.4576873779297,900.2576751708984) rotate(-144.73848037627525)"><path class="relationship" d="M 176.60994627474076 4 L 588.86961630233 4 L 588.86961630233 16 L 620.86961630233 0 L 588.86961630233 -16 L 588.86961630233 -4 L 176.60994627474076 -4 Z" fill="rgb(0, 0, 0)" stroke="rgb(51, 51, 51)" stroke-width="0px"/><text class="type" text-anchor="middle" baseline-shift="30%" alignment-baseline="alphabetic" x="-382.73978128853537" y="0" font-size="50px" font-family="'Gill Sans', 'Gill Sans MT', Calibri, sans-serif" transform="rotate(180)">HAS_OFFICE</text></g></g></g><g class="layer nodes"><circle class="node node-id-0" r="76.69748694700662" fill="rgb(255, 255, 255)" stroke="rgb(0, 0, 0)" stroke-width="8px" cx="179.4576873779297" cy="-94.44497108459473"/><g class="caption"><text class="caption node" text-anchor="middle" alignment-baseline="central" x="179.4576873779297" y="-94.44497108459473" font-size="50px" font-family="'Gill Sans', 'Gill Sans MT', Calibri, sans-serif">Mark</text></g><circle class="node node-id-1" r="77.60034129593444" fill="rgb(255, 255, 255)" stroke="rgb(0, 0, 0)" stroke-width="8px" cx="-732.6824951171875" cy="-94.44497108459473"/><g class="caption"><text class="caption node" text-anchor="middle" alignment-baseline="central" x="-732.6824951171875" y="-94.44497108459473" font-size="50px" font-family="'Gill Sans', 'Gill Sans MT', Calibri, sans-serif">Nigel</text></g><circle class="node node-id-2" r="120.83893136145792" fill="rgb(255, 255, 255)" stroke="rgb(0, 0, 0)" stroke-width="8px" cx="179.4576873779297" cy="431.01332092285156"/><g class="caption"><text class="caption node" text-anchor="middle" alignment-baseline="central" x="179.4576873779297" y="406.01332092285156" font-size="50px" font-family="'Gill Sans', 'Gill Sans MT', Calibri, sans-serif">Python</text><text class="caption node" text-anchor="middle" alignment-baseline="central" x="179.4576873779297" y="456.01332092285156" font-size="50px" font-family="'Gill Sans', 'Gill Sans MT', Calibri, sans-serif">Dojo</text></g><circle class="node node-id-3" r="176.94302770302968" fill="rgb(255, 255, 255)" stroke="rgb(0, 0, 0)" stroke-width="8px" cx="-484.2245635986328" cy="431.01332092285156"/><g class="caption"><text class="caption node" text-anchor="middle" alignment-baseline="central" x="-484.2245635986328" y="381.01332092285156" font-size="50px" font-family="'Gill Sans', 'Gill Sans MT', Calibri, sans-serif">Hogarth</text><text class="caption node" text-anchor="middle" alignment-baseline="central" x="-484.2245635986328" y="431.01332092285156" font-size="50px" font-family="'Gill Sans', 'Gill Sans MT', Calibri, sans-serif">World</text><text class="caption node" text-anchor="middle" alignment-baseline="central" x="-484.2245635986328" y="481.01332092285156" font-size="50px" font-family="'Gill Sans', 'Gill Sans MT', Calibri, sans-serif">Wide's Office</text></g><circle class="node node-id-4" r="94.27283706623525" fill="rgb(255, 255, 255)" stroke="rgb(0, 0, 0)" stroke-width="8px" cx="569.0085906982422" cy="32.13470649719238"/><g class="caption"><text class="caption node" text-anchor="middle" alignment-baseline="central" x="569.0085906982422" y="32.13470649719238" font-size="50px" font-family="'Gill Sans', 'Gill Sans MT', Calibri, sans-serif">Python</text></g><circle class="node node-id-5" r="161.60994627474076" fill="rgb(255, 255, 255)" stroke="rgb(0, 0, 0)" stroke-width="8px" cx="179.4576873779297" cy="900.2576751708984"/><g class="caption"><text class="caption node" text-anchor="middle" alignment-baseline="central" x="179.4576873779297" y="850.2576751708984" font-size="50px" font-family="'Gill Sans', 'Gill Sans MT', Calibri, sans-serif">Hogarth</text><text class="caption node" text-anchor="middle" alignment-baseline="central" x="179.4576873779297" y="900.2576751708984" font-size="50px" font-family="'Gill Sans', 'Gill Sans MT', Calibri, sans-serif">World</text><text class="caption node" text-anchor="middle" alignment-baseline="central" x="179.4576873779297" y="950.2576751708984" font-size="50px" font-family="'Gill Sans', 'Gill Sans MT', Calibri, sans-serif">Wide</text></g></g><g class="layer properties"><g class="speech-bubble node-speech-bubble" transform="translate(233.6910004981248,-148.67828420478983) "><path class="speech-bubble-outline" transform="scale(1,-1) " d="M 0 0 L 30 20 L 268 20 A 10 10 0 0 1 278 30 L 278 80 A 10 10 0 0 1 268 90 L 30 90 A 10 10 0 0 1 20 80 L 20 30 Z" fill="rgb(255, 255, 255)" stroke="rgb(0, 0, 0)" stroke-width="3px"/><text class="speech-bubble-content property-key" x="164" y="-55" alignment-baseline="central" text-anchor="end" font-size="50px" font-family="'Gill Sans', 'Gill Sans MT', Calibri, sans-serif" xml:space="preserve">name: </text><text class="speech-bubble-content property-value" x="164" y="-55" alignment-baseline="central" font-size="50px" font-family="'Gill Sans', 'Gill Sans MT', Calibri, sans-serif">Mark</text></g><g class="speech-bubble node-speech-bubble" transform="translate(-810.2828364131219,-94.44497108459473) "><path class="speech-bubble-outline" transform="scale(-1,1) " d="M 0 0 L 20 -10 L 20 -25 A 10 10 0 0 1 30 -35 L 270 -35 A 10 10 0 0 1 280 -25 L 280 25 A 10 10 0 0 1 270 35 L 30 35 A 10 10 0 0 1 20 25 L 20 10 Z" fill="rgb(255, 255, 255)" stroke="rgb(0, 0, 0)" stroke-width="3px"/><text class="speech-bubble-content property-key" x="-136" y="0" alignment-baseline="central" text-anchor="end" font-size="50px" font-family="'Gill Sans', 'Gill Sans MT', Calibri, sans-serif" xml:space="preserve">name: </text><text class="speech-bubble-content property-value" x="-136" y="0" alignment-baseline="central" font-size="50px" font-family="'Gill Sans', 'Gill Sans MT', Calibri, sans-serif">Nigel</text></g><g class="speech-bubble node-speech-bubble" transform="translate(264.90371517495237,516.4593487198742) "><path class="speech-bubble-outline" transform="scale(1,1) " d="M 0 0 L 30 20 L 411 20 A 10 10 0 0 1 421 30 L 421 80 A 10 10 0 0 1 411 90 L 30 90 A 10 10 0 0 1 20 80 L 20 30 Z" fill="rgb(255, 255, 255)" stroke="rgb(0, 0, 0)" stroke-width="3px"/><text class="speech-bubble-content property-key" x="142" y="55" alignment-baseline="central" text-anchor="end" font-size="50px" font-family="'Gill Sans', 'Gill Sans MT', Calibri, sans-serif" xml:space="preserve">date: </text><text class="speech-bubble-content property-value" x="142" y="55" alignment-baseline="central" font-size="50px" font-family="'Gill Sans', 'Gill Sans MT', Calibri, sans-serif">3rd July 2014</text></g><g class="speech-bubble node-speech-bubble" transform="translate(-661.1675913016625,431.01332092285156) "><path class="speech-bubble-outline" transform="scale(-1,1) " d="M 0 0 L 20 -10 L 20 -75 A 10 10 0 0 1 30 -85 L 667 -85 A 10 10 0 0 1 677 -75 L 677 75 A 10 10 0 0 1 667 85 L 30 85 A 10 10 0 0 1 20 75 L 20 10 Z" fill="rgb(255, 255, 255)" stroke="rgb(0, 0, 0)" stroke-width="3px"/><text class="speech-bubble-content property-key" x="-454" y="-50" alignment-baseline="central" text-anchor="end" font-size="50px" font-family="'Gill Sans', 'Gill Sans MT', Calibri, sans-serif" xml:space="preserve">address: </text><text class="speech-bubble-content property-key" x="-454" y="0" alignment-baseline="central" text-anchor="end" font-size="50px" font-family="'Gill Sans', 'Gill Sans MT', Calibri, sans-serif" xml:space="preserve">city: </text><text class="speech-bubble-content property-key" x="-454" y="50" alignment-baseline="central" text-anchor="end" font-size="50px" font-family="'Gill Sans', 'Gill Sans MT', Calibri, sans-serif" xml:space="preserve">postcode: </text><text class="speech-bubble-content property-value" x="-454" y="-50" alignment-baseline="central" font-size="50px" font-family="'Gill Sans', 'Gill Sans MT', Calibri, sans-serif">25 Great Pulteney St</text><text class="speech-bubble-content property-value" x="-454" y="0" alignment-baseline="central" font-size="50px" font-family="'Gill Sans', 'Gill Sans MT', Calibri, sans-serif">London</text><text class="speech-bubble-content property-value" x="-454" y="50" alignment-baseline="central" font-size="50px" font-family="'Gill Sans', 'Gill Sans MT', Calibri, sans-serif">W1F 9LT</text></g></g><g class="layer overlay"><circle class="node overlay" r="80.69748694700662" stroke="none" fill="rgba(255, 255, 255, 0)" cx="179.4576873779297" cy="-94.44497108459473"/><circle class="node ring" r="85.69748694700662" fill="none" stroke="rgba(255, 255, 255, 0)" stroke-width="10px" cx="179.4576873779297" cy="-94.44497108459473"/><circle class="node overlay" r="81.60034129593444" stroke="none" fill="rgba(255, 255, 255, 0)" cx="-732.6824951171875" cy="-94.44497108459473"/><circle class="node ring" r="86.60034129593444" fill="none" stroke="rgba(255, 255, 255, 0)" stroke-width="10px" cx="-732.6824951171875" cy="-94.44497108459473"/><path class="relationship overlay" fill="rgba(255, 255, 255, 0)" stroke="rgba(255, 255, 255, 0)" stroke-width="10px" transform="translate(179.4576873779297,-94.44497108459473) rotate(180)" d="M 91.69748694700662 4 L 787.5398411991828 4 L 787.5398411991828 16 L 819.5398411991828 0 L 787.5398411991828 -16 L 787.5398411991828 -4 L 91.69748694700662 -4 Z"/><circle class="node overlay" r="124.83893136145792" stroke="none" fill="rgba(255, 255, 255, 0)" cx="179.4576873779297" cy="431.01332092285156"/><circle class="node ring" r="129.83893136145792" fill="none" stroke="rgba(255, 255, 255, 0)" stroke-width="10px" cx="179.4576873779297" cy="431.01332092285156"/><path class="relationship overlay" fill="rgba(255, 255, 255, 0)" stroke="rgba(255, 255, 255, 0)" stroke-width="10px" transform="translate(179.4576873779297,-94.44497108459473) rotate(90)" d="M 91.69748694700662 4 L 357.61936064598837 4 L 357.61936064598837 16 L 389.61936064598837 0 L 357.61936064598837 -16 L 357.61936064598837 -4 L 91.69748694700662 -4 Z"/><path class="relationship overlay" fill="rgba(255, 255, 255, 0)" stroke="rgba(255, 255, 255, 0)" stroke-width="10px" transform="translate(-732.6824951171875,-94.44497108459473) rotate(29.945034024602748)" d="M 92.60034129593444 4 L 884.8272688946386 4 L 884.8272688946386 16 L 916.8272688946386 0 L 884.8272688946386 -16 L 884.8272688946386 -4 L 92.60034129593444 -4 Z"/><circle class="node overlay" r="180.94302770302968" stroke="none" fill="rgba(255, 255, 255, 0)" cx="-484.2245635986328" cy="431.01332092285156"/><circle class="node ring" r="185.94302770302968" fill="none" stroke="rgba(255, 255, 255, 0)" stroke-width="10px" cx="-484.2245635986328" cy="431.01332092285156"/><path class="relationship overlay" fill="rgba(255, 255, 255, 0)" stroke="rgba(255, 255, 255, 0)" stroke-width="10px" transform="translate(179.4576873779297,431.01332092285156) rotate(180)" d="M 135.83893136145792 4 L 439.73922327353284 4 L 439.73922327353284 16 L 471.73922327353284 0 L 439.73922327353284 -16 L 439.73922327353284 -4 L 135.83893136145792 -4 Z"/><circle class="node overlay" r="98.27283706623525" stroke="none" fill="rgba(255, 255, 255, 0)" cx="569.0085906982422" cy="32.13470649719238"/><circle class="node ring" r="103.27283706623525" fill="none" stroke="rgba(255, 255, 255, 0)" stroke-width="10px" cx="569.0085906982422" cy="32.13470649719238"/><path class="relationship overlay" fill="rgba(255, 255, 255, 0)" stroke="rgba(255, 255, 255, 0)" stroke-width="10px" transform="translate(179.4576873779297,431.01332092285156) rotate(-45.677820317994254)" d="M 135.83893136145792 4 L 416.2700360151137 4 L 416.2700360151137 16 L 448.2700360151137 0 L 416.2700360151137 -16 L 416.2700360151137 -4 L 135.83893136145792 -4 Z"/><circle class="node overlay" r="165.60994627474076" stroke="none" fill="rgba(255, 255, 255, 0)" cx="179.4576873779297" cy="900.2576751708984"/><circle class="node ring" r="170.60994627474076" fill="none" stroke="rgba(255, 255, 255, 0)" stroke-width="10px" cx="179.4576873779297" cy="900.2576751708984"/><path class="relationship overlay" fill="rgba(255, 255, 255, 0)" stroke="rgba(255, 255, 255, 0)" stroke-width="10px" transform="translate(179.4576873779297,900.2576751708984) rotate(-144.73848037627525)" d="M 176.60994627474076 4 L 588.86961630233 4 L 588.86961630233 16 L 620.86961630233 0 L 588.86961630233 -16 L 588.86961630233 -4 L 176.60994627474076 -4 Z"/></g></svg>