<svg xmlns="http://www.w3.org/2000/svg" class="graphdiagram" viewBox="-476.6922870421663 -284.9598154885916 2019.2307303276186 1030.649018604722"><g class="layer relationships"><g class="related-pair"><g class="relationship" transform="translate(-161.53356170654297,151.4422264099121) rotate(0)"><path class="relationship" d="M 108.80140373014399 4 L 547.0558441032738 4 L 547.0558441032738 16 L 579.0558441032738 0 L 547.0558441032738 -16 L 547.0558441032738 -4 L 108.80140373014399 -4 Z" fill="rgb(0, 0, 0)" stroke="rgb(51, 51, 51)" stroke-width="0px"/><text class="type" text-anchor="middle" baseline-shift="30%" alignment-baseline="alphabetic" x="327.9286239167089" y="0" font-size="50px" font-family="'Gill Sans', 'Gill Sans MT', Calibri, sans-serif">HAS MEMBERSHIP</text></g></g><g class="related-pair"><g class="relationship" transform="translate(579.4880981445312,151.4422264099121) rotate(-13.76772883969853)"><path class="relationship" d="M 161.96581574780038 4 L 498.36723111773017 4 L 498.36723111773017 16 L 530.3672311177302 0 L 498.36723111773017 -16 L 498.36723111773017 -4 L 161.96581574780038 -4 Z" fill="rgb(0, 0, 0)" stroke="rgb(51, 51, 51)" stroke-width="0px"/><text class="type" text-anchor="middle" baseline-shift="30%" alignment-baseline="alphabetic" x="330.1665234327653" y="0" font-size="50px" font-family="'Gill Sans', 'Gill Sans MT', Calibri, sans-serif">OF GROUP</text></g></g><g class="related-pair"><g class="relationship" transform="translate(1197.552978515625,0) rotate(-162.16955277580763)"><path class="relationship" d="M 105.98090024443984 4 L 520.0919195764586 4 L 520.0919195764586 16 L 552.0919195764586 0 L 520.0919195764586 -16 L 520.0919195764586 -4 L 105.98090024443984 -4 Z" fill="rgb(0, 0, 0)" stroke="rgb(51, 51, 51)" stroke-width="0px"/><text class="type" text-anchor="middle" baseline-shift="30%" alignment-baseline="alphabetic" transform="rotate(180)" x="-313.0364099104492" y="0" font-size="50px" font-family="'Gill Sans', 'Gill Sans MT', Calibri, sans-serif">HAS TOPIC</text></g></g><g class="related-pair"><g class="relationship" transform="translate(-161.53356170654297,151.4422264099121) rotate(-25.297736011474065)"><path class="relationship" d="M 108.80140373014399 4 L 690.4655401449722 4 L 690.4655401449722 16 L 722.4655401449722 0 L 690.4655401449722 -16 L 690.4655401449722 -4 L 108.80140373014399 -4 Z" fill="rgb(0, 0, 0)" stroke="rgb(51, 51, 51)" stroke-width="0px"/><text class="type" text-anchor="middle" baseline-shift="30%" alignment-baseline="alphabetic" x="399.6334719375581" y="0" font-size="50px" font-family="'Gill Sans', 'Gill Sans MT', Calibri, sans-serif">INTERESTED IN</text></g></g><g class="related-pair"><g class="relationship" transform="translate(1197.552978515625,0) rotate(131.8067852569063)"><path class="relationship" d="M 105.98090024443984 4 L 749.5735598130968 4 L 749.5735598130968 16 L 781.5735598130968 0 L 749.5735598130968 -16 L 749.5735598130968 -4 L 105.98090024443984 -4 Z" fill="rgb(0, 0, 0)" stroke="rgb(51, 51, 51)" stroke-width="0px"/><text class="type" text-anchor="middle" baseline-shift="30%" alignment-baseline="alphabetic" x="-427.7772300287684" y="0" font-size="50px" font-family="'Gill Sans', 'Gill Sans MT', Calibri, sans-serif" transform="rotate(180)">HOSTED EVENT</text></g></g><g class="related-pair"><g class="relationship" transform="translate(612.6882934570312,653.9796695709229) rotate(0)"><path class="relationship" d="M 95.78389757857624 4 L 486.0737611325269 4 L 486.0737611325269 16 L 518.0737611325269 0 L 486.0737611325269 -16 L 486.0737611325269 -4 L 95.78389757857624 -4 Z" fill="rgb(0, 0, 0)" stroke="rgb(51, 51, 51)" stroke-width="0px"/><text class="type" text-anchor="middle" baseline-shift="30%" alignment-baseline="alphabetic" x="290.92882935555156" y="0" font-size="50px" font-family="'Gill Sans', 'Gill Sans MT', Calibri, sans-serif">HELD AT</text></g></g><g class="related-pair"><g class="relationship" transform="translate(-161.53356170654297,151.4422264099121) rotate(50.245786378546846)"><path class="relationship" d="M 108.80140373014399 4 L 286.69656341568685 4 L 286.69656341568685 16 L 318.69656341568685 0 L 286.69656341568685 -16 L 286.69656341568685 -4 L 108.80140373014399 -4 Z" fill="rgb(0, 0, 0)" stroke="rgb(51, 51, 51)" stroke-width="0px"/><text class="type" text-anchor="middle" baseline-shift="30%" alignment-baseline="alphabetic" x="197.74898357291542" y="0" font-size="50px" font-family="'Gill Sans', 'Gill Sans MT', Calibri, sans-serif">RSVPD</text></g></g><g class="related-pair"><g class="relationship" transform="translate(128.07249450683594,499.60357666015625) rotate(17.669463816467946)"><path class="relationship" d="M 134.1698557451292 4 L 380.8264155832095 4 L 380.8264155832095 16 L 412.8264155832095 0 L 380.8264155832095 -16 L 380.8264155832095 -4 L 134.1698557451292 -4 Z" fill="rgb(0, 0, 0)" stroke="rgb(51, 51, 51)" stroke-width="0px"/><text class="type" text-anchor="middle" baseline-shift="30%" alignment-baseline="alphabetic" x="257.49813566416935" y="0" font-size="50px" font-family="'Gill Sans', 'Gill Sans MT', Calibri, sans-serif">TO</text></g></g></g><g class="layer nodes"><circle class="node node-id-0" r="93.80140373014399" fill="rgb(255, 255, 255)" stroke="rgb(0, 0, 0)" stroke-width="8px" cx="-161.53356170654297" cy="151.4422264099121"/><g class="caption"><text class="caption node" text-anchor="middle" alignment-baseline="central" x="-161.53356170654297" y="151.4422264099121" font-size="50px" font-family="'Gill Sans', 'Gill Sans MT', Calibri, sans-serif">Person</text></g><circle class="node node-id-1" r="146.96581574780038" fill="rgb(255, 255, 255)" stroke="rgb(0, 0, 0)" stroke-width="8px" cx="579.4880981445312" cy="151.4422264099121"/><circle class="node node-id-2" r="90.98090024443984" fill="rgb(255, 255, 255)" stroke="rgb(0, 0, 0)" stroke-width="8px" cx="1197.552978515625" cy="0"/><g class="caption"><text class="caption node" text-anchor="middle" alignment-baseline="central" x="579.4880981445312" y="151.4422264099121" font-size="50px" font-family="'Gill Sans', 'Gill Sans MT', Calibri, sans-serif">Membership</text></g><circle class="node node-id-3" r="82.15853069855251" fill="rgb(255, 255, 255)" stroke="rgb(0, 0, 0)" stroke-width="8px" cx="579.4880981445312" cy="-198.80128479003906"/><g class="caption"><text class="caption node" text-anchor="middle" alignment-baseline="central" x="1197.552978515625" y="0" font-size="50px" font-family="'Gill Sans', 'Gill Sans MT', Calibri, sans-serif">Group</text></g><g class="caption"><text class="caption node" text-anchor="middle" alignment-baseline="central" x="579.4880981445312" y="-198.80128479003906" font-size="50px" font-family="'Gill Sans', 'Gill Sans MT', Calibri, sans-serif">Topic</text></g><circle class="node node-id-4" r="87.70953354520753" fill="rgb(255, 255, 255)" stroke="rgb(0, 0, 0)" stroke-width="8px" cx="1233.4715881347656" cy="653.9796695709229"/><g class="caption"><text class="caption node" text-anchor="middle" alignment-baseline="central" x="1233.4715881347656" y="653.9796695709229" font-size="50px" font-family="'Gill Sans', 'Gill Sans MT', Calibri, sans-serif">Venue</text></g><circle class="node node-id-5" r="80.78389757857624" fill="rgb(255, 255, 255)" stroke="rgb(0, 0, 0)" stroke-width="8px" cx="612.6882934570312" cy="653.9796695709229"/><g class="caption"><text class="caption node" text-anchor="middle" alignment-baseline="central" x="612.6882934570312" y="653.9796695709229" font-size="50px" font-family="'Gill Sans', 'Gill Sans MT', Calibri, sans-serif">Event</text></g><circle class="node node-id-6" r="119.16985574512923" fill="rgb(255, 255, 255)" stroke="rgb(0, 0, 0)" stroke-width="8px" cx="128.07249450683594" cy="499.60357666015625"/><g class="caption"><text class="caption node" text-anchor="middle" alignment-baseline="central" x="128.07249450683594" y="499.60357666015625" font-size="50px" font-family="'Gill Sans', 'Gill Sans MT', Calibri, sans-serif">Response</text></g></g><g class="layer properties"/><g class="layer overlay"><circle class="node overlay" r="97.80140373014399" stroke="none" fill="rgba(255, 255, 255, 0)" cx="-161.53356170654297" cy="151.4422264099121"/><circle class="node ring" r="102.80140373014399" fill="none" stroke="rgba(255, 255, 255, 0)" stroke-width="10px" cx="-161.53356170654297" cy="151.4422264099121"/><circle class="node overlay" r="150.96581574780038" stroke="none" fill="rgba(255, 255, 255, 0)" cx="579.4880981445312" cy="151.4422264099121"/><circle class="node ring" r="155.96581574780038" fill="none" stroke="rgba(255, 255, 255, 0)" stroke-width="10px" cx="579.4880981445312" cy="151.4422264099121"/><path class="relationship overlay" fill="rgba(255, 255, 255, 0)" stroke="rgba(255, 255, 255, 0)" stroke-width="10px" transform="translate(-161.53356170654297,151.4422264099121) rotate(0)" d="M 108.80140373014399 4 L 547.0558441032738 4 L 547.0558441032738 16 L 579.0558441032738 0 L 547.0558441032738 -16 L 547.0558441032738 -4 L 108.80140373014399 -4 Z"/><circle class="node overlay" r="94.98090024443984" stroke="none" fill="rgba(255, 255, 255, 0)" cx="1197.552978515625" cy="0"/><circle class="node ring" r="99.98090024443984" fill="none" stroke="rgba(255, 255, 255, 0)" stroke-width="10px" cx="1197.552978515625" cy="0"/><path class="relationship overlay" fill="rgba(255, 255, 255, 0)" stroke="rgba(255, 255, 255, 0)" stroke-width="10px" transform="translate(579.4880981445312,151.4422264099121) rotate(-13.76772883969853)" d="M 161.96581574780038 4 L 498.36723111773017 4 L 498.36723111773017 16 L 530.3672311177302 0 L 498.36723111773017 -16 L 498.36723111773017 -4 L 161.96581574780038 -4 Z"/><circle class="node overlay" r="86.15853069855251" stroke="none" fill="rgba(255, 255, 255, 0)" cx="579.4880981445312" cy="-198.80128479003906"/><circle class="node ring" r="91.15853069855251" fill="none" stroke="rgba(255, 255, 255, 0)" stroke-width="10px" cx="579.4880981445312" cy="-198.80128479003906"/><path class="relationship overlay" fill="rgba(255, 255, 255, 0)" stroke="rgba(255, 255, 255, 0)" stroke-width="10px" transform="translate(1197.552978515625,0) rotate(-162.16955277580763)" d="M 105.98090024443984 4 L 520.0919195764586 4 L 520.0919195764586 16 L 552.0919195764586 0 L 520.0919195764586 -16 L 520.0919195764586 -4 L 105.98090024443984 -4 Z"/><path class="relationship overlay" fill="rgba(255, 255, 255, 0)" stroke="rgba(255, 255, 255, 0)" stroke-width="10px" transform="translate(-161.53356170654297,151.4422264099121) rotate(-25.297736011474065)" d="M 108.80140373014399 4 L 690.4655401449722 4 L 690.4655401449722 16 L 722.4655401449722 0 L 690.4655401449722 -16 L 690.4655401449722 -4 L 108.80140373014399 -4 Z"/><circle class="node overlay" r="91.70953354520753" stroke="none" fill="rgba(255, 255, 255, 0)" cx="1233.4715881347656" cy="653.9796695709229"/><circle class="node ring" r="96.70953354520753" fill="none" stroke="rgba(255, 255, 255, 0)" stroke-width="10px" cx="1233.4715881347656" cy="653.9796695709229"/><circle class="node overlay" r="84.78389757857624" stroke="none" fill="rgba(255, 255, 255, 0)" cx="612.6882934570312" cy="653.9796695709229"/><circle class="node ring" r="89.78389757857624" fill="none" stroke="rgba(255, 255, 255, 0)" stroke-width="10px" cx="612.6882934570312" cy="653.9796695709229"/><path class="relationship overlay" fill="rgba(255, 255, 255, 0)" stroke="rgba(255, 255, 255, 0)" stroke-width="10px" transform="translate(1197.552978515625,0) rotate(131.8067852569063)" d="M 105.98090024443984 4 L 749.5735598130968 4 L 749.5735598130968 16 L 781.5735598130968 0 L 749.5735598130968 -16 L 749.5735598130968 -4 L 105.98090024443984 -4 Z"/><path class="relationship overlay" fill="rgba(255, 255, 255, 0)" stroke="rgba(255, 255, 255, 0)" stroke-width="10px" transform="translate(612.6882934570312,653.9796695709229) rotate(0)" d="M 95.78389757857624 4 L 486.0737611325269 4 L 486.0737611325269 16 L 518.0737611325269 0 L 486.0737611325269 -16 L 486.0737611325269 -4 L 95.78389757857624 -4 Z"/><circle class="node overlay" r="123.16985574512923" stroke="none" fill="rgba(255, 255, 255, 0)" cx="128.07249450683594" cy="499.60357666015625"/><circle class="node ring" r="128.1698557451292" fill="none" stroke="rgba(255, 255, 255, 0)" stroke-width="10px" cx="128.07249450683594" cy="499.60357666015625"/><path class="relationship overlay" fill="rgba(255, 255, 255, 0)" stroke="rgba(255, 255, 255, 0)" stroke-width="10px" transform="translate(-161.53356170654297,151.4422264099121) rotate(50.245786378546846)" d="M 108.80140373014399 4 L 286.69656341568685 4 L 286.69656341568685 16 L 318.69656341568685 0 L 286.69656341568685 -16 L 286.69656341568685 -4 L 108.80140373014399 -4 Z"/><path class="relationship overlay" fill="rgba(255, 255, 255, 0)" stroke="rgba(255, 255, 255, 0)" stroke-width="10px" transform="translate(128.07249450683594,499.60357666015625) rotate(17.669463816467946)" d="M 134.1698557451292 4 L 380.8264155832095 4 L 380.8264155832095 16 L 412.8264155832095 0 L 380.8264155832095 -16 L 380.8264155832095 -4 L 134.1698557451292 -4 Z"/></g></svg>