<svg xmlns="http://www.w3.org/2000/svg" class="graphdiagram" viewBox="-541.4852522940784 -158.368202299615 1684.3067684467933 911.1631754305917"><g class="layer relationships"><g class="related-pair"><g class="relationship" transform="translate(-85.73250389099121,0) rotate(90)"><path class="relationship" d="M 102.24404735945839 4 L 314.0120448317238 4 L 314.0120448317238 16 L 346.0120448317238 0 L 314.0120448317238 -16 L 314.0120448317238 -4 L 102.24404735945839 -4 Z" fill="rgb(0, 0, 0)" stroke="rgb(51, 51, 51)" stroke-width="0px"/><text class="type" text-anchor="middle" baseline-shift="30%" alignment-baseline="alphabetic" x="208.12804609559112" y="0" font-size="50px" font-family="'Gill Sans', 'Gill Sans MT', Calibri, sans-serif">is</text></g></g><g class="related-pair"><g class="relationship" transform="translate(-85.73250389099121,0) rotate(0)"><path class="relationship" d="M 102.24404735945839 4 L 264.9614310549896 4 L 264.9614310549896 16 L 296.9614310549896 0 L 264.9614310549896 -16 L 264.9614310549896 -4 L 102.24404735945839 -4 Z" fill="rgb(0, 0, 0)" stroke="rgb(51, 51, 51)" stroke-width="0px"/><text class="type" text-anchor="middle" baseline-shift="30%" alignment-baseline="alphabetic" x="183.60273920722398" y="0" font-size="50px" font-family="'Gill Sans', 'Gill Sans MT', Calibri, sans-serif">stores</text></g></g><g class="related-pair"><g class="relationship" transform="translate(332.0081024169922,0) rotate(0)"><path class="relationship" d="M 120.77917525299382 4 L 373.54359011200546 4 L 373.54359011200546 16 L 405.54359011200546 0 L 373.54359011200546 -16 L 373.54359011200546 -4 L 120.77917525299382 -4 Z" fill="rgb(0, 0, 0)" stroke="rgb(51, 51, 51)" stroke-width="0px"/><text class="type" text-anchor="middle" baseline-shift="30%" alignment-baseline="alphabetic" x="247.16138268249966" y="0" font-size="50px" font-family="'Gill Sans', 'Gill Sans MT', Calibri, sans-serif">as</text></g></g><g class="related-pair"><g class="relationship" transform="translate(332.0081024169922,0) rotate(90)"><path class="relationship" d="M 120.77917525299382 4 L 320.5877945243189 4 L 320.5877945243189 16 L 352.5877945243189 0 L 320.5877945243189 -16 L 320.5877945243189 -4 L 120.77917525299382 -4 Z" fill="rgb(0, 0, 0)" stroke="rgb(51, 51, 51)" stroke-width="0px"/><text class="type" text-anchor="middle" baseline-shift="30%" alignment-baseline="alphabetic" x="220.68348488865638" y="0" font-size="50px" font-family="'Gill Sans', 'Gill Sans MT', Calibri, sans-serif">as</text></g></g><g class="related-pair"><g class="relationship" transform="translate(332.0081024169922,521.9170227050781) rotate(0)"><path class="relationship" d="M 169.32922818075923 4 L 336.1295636002195 4 L 336.1295636002195 16 L 368.1295636002195 0 L 336.1295636002195 -16 L 336.1295636002195 -4 L 169.32922818075923 -4 Z" fill="rgb(0, 0, 0)" stroke="rgb(51, 51, 51)" stroke-width="0px"/><text class="type" text-anchor="middle" baseline-shift="30%" alignment-baseline="alphabetic" x="252.72939589048937" y="0" font-size="50px" font-family="'Gill Sans', 'Gill Sans MT', Calibri, sans-serif">can haz</text></g></g><g class="related-pair"><g class="relationship" transform="translate(843.5325927734375,0) rotate(90)"><path class="relationship" d="M 105.98090024443984 4 L 346.5220959488523 4 L 346.5220959488523 16 L 378.5220959488523 0 L 346.5220959488523 -16 L 346.5220959488523 -4 L 105.98090024443984 -4 Z" fill="rgb(0, 0, 0)" stroke="rgb(51, 51, 51)" stroke-width="0px"/><text class="type" text-anchor="middle" baseline-shift="30%" alignment-baseline="alphabetic" x="226.25149809664606" y="0" font-size="50px" font-family="'Gill Sans', 'Gill Sans MT', Calibri, sans-serif">can haz</text></g></g><g class="related-pair"><g class="relationship" transform="translate(-85.73250389099121,0) rotate(124.3647536835227)"><path class="relationship" d="M 102.24404735945839 4 L 447.9006495061345 4 L 447.9006495061345 16 L 479.9006495061345 0 L 447.9006495061345 -16 L 447.9006495061345 -4 L 102.24404735945839 -4 Z" fill="rgb(0, 0, 0)" stroke="rgb(51, 51, 51)" stroke-width="0px"/><text class="type" text-anchor="middle" baseline-shift="30%" alignment-baseline="alphabetic" transform="rotate(180)" x="-275.0723484327965" y="0" font-size="50px" font-family="'Gill Sans', 'Gill Sans MT', Calibri, sans-serif">is</text></g></g></g><g class="layer nodes"><circle class="node node-id-0" r="87.24404735945839" fill="rgb(255, 255, 255)" stroke="rgb(0, 0, 0)" stroke-width="8px" cx="-85.73250389099121" cy="0"/><circle class="node node-id-1" r="138.47384651043927" fill="rgb(255, 255, 255)" stroke="rgb(0, 0, 0)" stroke-width="8px" cx="-85.73250389099121" cy="499.4858913421631"/><circle class="node node-id-2" r="105.77917525299382" fill="rgb(255, 255, 255)" stroke="rgb(0, 0, 0)" stroke-width="8px" cx="332.0081024169922" cy="0"/><circle class="node node-id-3" r="90.98090024443984" fill="rgb(255, 255, 255)" stroke="rgb(0, 0, 0)" stroke-width="8px" cx="843.5325927734375" cy="0"/><circle class="node node-id-4" r="154.32922818075923" fill="rgb(255, 255, 255)" stroke="rgb(0, 0, 0)" stroke-width="8px" cx="332.0081024169922" cy="521.9170227050781"/><circle class="node node-id-5" r="128.39492675622577" fill="rgb(255, 255, 255)" stroke="rgb(0, 0, 0)" stroke-width="8px" cx="843.5325927734375" cy="521.9170227050781"/><circle class="node node-id-6" r="110.19875327064085" fill="rgb(255, 255, 255)" stroke="rgb(0, 0, 0)" stroke-width="8px" cx="-427.2864990234375" cy="499.4858913421631"/><g class="caption"><text class="caption node" text-anchor="middle" alignment-baseline="central" x="-85.73250389099121" y="0" font-size="50px" font-family="'Gill Sans', 'Gill Sans MT', Calibri, sans-serif">Neo4j</text></g><g class="caption"><text class="caption node" text-anchor="middle" alignment-baseline="central" x="-85.73250389099121" y="449.4858913421631" font-size="50px" font-family="'Gill Sans', 'Gill Sans MT', Calibri, sans-serif">A</text><text class="caption node" text-anchor="middle" alignment-baseline="central" x="-85.73250389099121" y="499.4858913421631" font-size="50px" font-family="'Gill Sans', 'Gill Sans MT', Calibri, sans-serif">Graph</text><text class="caption node" text-anchor="middle" alignment-baseline="central" x="-85.73250389099121" y="549.4858913421631" font-size="50px" font-family="'Gill Sans', 'Gill Sans MT', Calibri, sans-serif">Database</text></g><g class="caption"><text class="caption node" text-anchor="middle" alignment-baseline="central" x="332.0081024169922" y="-25" font-size="50px" font-family="'Gill Sans', 'Gill Sans MT', Calibri, sans-serif">Your</text><text class="caption node" text-anchor="middle" alignment-baseline="central" x="332.0081024169922" y="25" font-size="50px" font-family="'Gill Sans', 'Gill Sans MT', Calibri, sans-serif">data</text></g><g class="caption"><text class="caption node" text-anchor="middle" alignment-baseline="central" x="843.5325927734375" y="0" font-size="50px" font-family="'Gill Sans', 'Gill Sans MT', Calibri, sans-serif">Nodes</text></g><g class="caption"><text class="caption node" text-anchor="middle" alignment-baseline="central" x="332.0081024169922" y="521.9170227050781" font-size="50px" font-family="'Gill Sans', 'Gill Sans MT', Calibri, sans-serif">Relationships</text></g><g class="caption"><text class="caption node" text-anchor="middle" alignment-baseline="central" x="843.5325927734375" y="521.9170227050781" font-size="50px" font-family="'Gill Sans', 'Gill Sans MT', Calibri, sans-serif">Properties</text></g><g class="caption"><text class="caption node" text-anchor="middle" alignment-baseline="central" x="-427.2864990234375" y="474.4858913421631" font-size="50px" font-family="'Gill Sans', 'Gill Sans MT', Calibri, sans-serif">Open</text><text class="caption node" text-anchor="middle" alignment-baseline="central" x="-427.2864990234375" y="524.4858913421631" font-size="50px" font-family="'Gill Sans', 'Gill Sans MT', Calibri, sans-serif">Source</text></g></g><g class="layer properties"><g class="speech-bubble node-speech-bubble" transform="translate(934.3215161527148,612.7059460843554) "><path class="speech-bubble-outline" transform="scale(1,1) " d="M 0 0 L 30 20 L 197 20 A 10 10 0 0 1 207 30 L 207 80 A 10 10 0 0 1 197 90 L 30 90 A 10 10 0 0 1 20 80 L 20 30 Z" fill="rgb(255, 255, 255)" stroke="rgb(0, 0, 0)" stroke-width="3px"/><text class="speech-bubble-content property-key" x="125" y="55" alignment-baseline="central" text-anchor="end" font-size="50px" font-family="'Gill Sans', 'Gill Sans MT', Calibri, sans-serif" xml:space="preserve">like: </text><text class="speech-bubble-content property-value" x="125" y="55" alignment-baseline="central" font-size="50px" font-family="'Gill Sans', 'Gill Sans MT', Calibri, sans-serif">this</text></g></g><g class="layer overlay"><circle class="node overlay" r="91.24404735945839" stroke="none" fill="rgba(255, 255, 255, 0)" cx="-85.73250389099121" cy="0"/><circle class="node overlay" r="142.47384651043927" stroke="none" fill="rgba(255, 255, 255, 0)" cx="-85.73250389099121" cy="499.4858913421631"/><circle class="node overlay" r="109.77917525299382" stroke="none" fill="rgba(255, 255, 255, 0)" cx="332.0081024169922" cy="0"/><circle class="node overlay" r="94.98090024443984" stroke="none" fill="rgba(255, 255, 255, 0)" cx="843.5325927734375" cy="0"/><circle class="node overlay" r="158.32922818075923" stroke="none" fill="rgba(255, 255, 255, 0)" cx="332.0081024169922" cy="521.9170227050781"/><circle class="node overlay" r="132.39492675622577" stroke="none" fill="rgba(255, 255, 255, 0)" cx="843.5325927734375" cy="521.9170227050781"/><circle class="node overlay" r="114.19875327064085" stroke="none" fill="rgba(255, 255, 255, 0)" cx="-427.2864990234375" cy="499.4858913421631"/><circle class="node ring" r="96.24404735945839" fill="none" stroke="rgba(255, 255, 255, 0)" stroke-width="10px" cx="-85.73250389099121" cy="0"/><circle class="node ring" r="147.47384651043927" fill="none" stroke="rgba(255, 255, 255, 0)" stroke-width="10px" cx="-85.73250389099121" cy="499.4858913421631"/><circle class="node ring" r="114.77917525299382" fill="none" stroke="rgba(255, 255, 255, 0)" stroke-width="10px" cx="332.0081024169922" cy="0"/><circle class="node ring" r="99.98090024443984" fill="none" stroke="rgba(255, 255, 255, 0)" stroke-width="10px" cx="843.5325927734375" cy="0"/><circle class="node ring" r="163.32922818075923" fill="none" stroke="rgba(255, 255, 255, 0)" stroke-width="10px" cx="332.0081024169922" cy="521.9170227050781"/><circle class="node ring" r="137.39492675622577" fill="none" stroke="rgba(255, 255, 255, 0)" stroke-width="10px" cx="843.5325927734375" cy="521.9170227050781"/><circle class="node ring" r="119.19875327064085" fill="none" stroke="rgba(255, 255, 255, 0)" stroke-width="10px" cx="-427.2864990234375" cy="499.4858913421631"/><path class="relationship overlay" fill="rgba(255, 255, 255, 0)" stroke="rgba(255, 255, 255, 0)" stroke-width="10px" transform="translate(-85.73250389099121,0) rotate(90)" d="M 102.24404735945839 4 L 314.0120448317238 4 L 314.0120448317238 16 L 346.0120448317238 0 L 314.0120448317238 -16 L 314.0120448317238 -4 L 102.24404735945839 -4 Z"/><path class="relationship overlay" fill="rgba(255, 255, 255, 0)" stroke="rgba(255, 255, 255, 0)" stroke-width="10px" transform="translate(-85.73250389099121,0) rotate(0)" d="M 102.24404735945839 4 L 264.9614310549896 4 L 264.9614310549896 16 L 296.9614310549896 0 L 264.9614310549896 -16 L 264.9614310549896 -4 L 102.24404735945839 -4 Z"/><path class="relationship overlay" fill="rgba(255, 255, 255, 0)" stroke="rgba(255, 255, 255, 0)" stroke-width="10px" transform="translate(332.0081024169922,0) rotate(0)" d="M 120.77917525299382 4 L 373.54359011200546 4 L 373.54359011200546 16 L 405.54359011200546 0 L 373.54359011200546 -16 L 373.54359011200546 -4 L 120.77917525299382 -4 Z"/><path class="relationship overlay" fill="rgba(255, 255, 255, 0)" stroke="rgba(255, 255, 255, 0)" stroke-width="10px" transform="translate(332.0081024169922,0) rotate(90)" d="M 120.77917525299382 4 L 320.5877945243189 4 L 320.5877945243189 16 L 352.5877945243189 0 L 320.5877945243189 -16 L 320.5877945243189 -4 L 120.77917525299382 -4 Z"/><path class="relationship overlay" fill="rgba(255, 255, 255, 0)" stroke="rgba(255, 255, 255, 0)" stroke-width="10px" transform="translate(332.0081024169922,521.9170227050781) rotate(0)" d="M 169.32922818075923 4 L 336.1295636002195 4 L 336.1295636002195 16 L 368.1295636002195 0 L 336.1295636002195 -16 L 336.1295636002195 -4 L 169.32922818075923 -4 Z"/><path class="relationship overlay" fill="rgba(255, 255, 255, 0)" stroke="rgba(255, 255, 255, 0)" stroke-width="10px" transform="translate(843.5325927734375,0) rotate(90)" d="M 105.98090024443984 4 L 346.5220959488523 4 L 346.5220959488523 16 L 378.5220959488523 0 L 346.5220959488523 -16 L 346.5220959488523 -4 L 105.98090024443984 -4 Z"/><path class="relationship overlay" fill="rgba(255, 255, 255, 0)" stroke="rgba(255, 255, 255, 0)" stroke-width="10px" transform="translate(-85.73250389099121,0) rotate(124.3647536835227)" d="M 102.24404735945839 4 L 447.9006495061345 4 L 447.9006495061345 16 L 479.9006495061345 0 L 447.9006495061345 -16 L 447.9006495061345 -4 L 102.24404735945839 -4 Z"/></g></svg>