<svg xmlns="http://www.w3.org/2000/svg" class="graphdiagram" viewBox="-501.82280576631547 -109.77917525299377 1851.4230980537861 944.9972062982866"><g class="layer relationships"><g class="related-pair"><g class="relationship" transform="translate(-85.73250389099121,0) rotate(90)"><path class="relationship" d="M 102.24404735945839 4 L 314.0120448317238 4 L 314.0120448317238 16 L 346.0120448317238 0 L 314.0120448317238 -16 L 314.0120448317238 -4 L 102.24404735945839 -4 Z" fill="rgb(0, 0, 0)" stroke="rgb(51, 51, 51)" stroke-width="0px"/><text class="type" text-anchor="middle" baseline-shift="30%" alignment-baseline="alphabetic" x="208.12804609559112" y="0" font-size="50px" font-family="'Gill Sans', 'Gill Sans MT', Calibri, sans-serif">is</text></g></g><g class="related-pair"><g class="relationship" transform="translate(-85.73250389099121,0) rotate(0)"><path class="relationship" d="M 102.24404735945839 4 L 264.9614310549896 4 L 264.9614310549896 16 L 296.9614310549896 0 L 264.9614310549896 -16 L 264.9614310549896 -4 L 102.24404735945839 -4 Z" fill="rgb(0, 0, 0)" stroke="rgb(51, 51, 51)" stroke-width="0px"/><text class="type" text-anchor="middle" baseline-shift="30%" alignment-baseline="alphabetic" x="183.60273920722398" y="0" font-size="50px" font-family="'Gill Sans', 'Gill Sans MT', Calibri, sans-serif">stores</text></g></g><g class="related-pair"><g class="relationship" transform="translate(332.0081024169922,0) rotate(0)"><path class="relationship" d="M 120.77917525299382 4 L 498.3394885495055 4 L 498.3394885495055 16 L 530.3394885495055 0 L 498.3394885495055 -16 L 498.3394885495055 -4 L 120.77917525299382 -4 Z" fill="rgb(0, 0, 0)" stroke="rgb(51, 51, 51)" stroke-width="0px"/><text class="type" text-anchor="middle" baseline-shift="30%" alignment-baseline="alphabetic" x="309.55933190124966" y="0" font-size="50px" font-family="'Gill Sans', 'Gill Sans MT', Calibri, sans-serif">as</text></g></g><g class="related-pair"><g class="relationship" transform="translate(332.0081024169922,0) rotate(90)"><path class="relationship" d="M 120.77917525299382 4 L 451.5998794852564 4 L 451.5998794852564 16 L 483.5998794852564 0 L 451.5998794852564 -16 L 451.5998794852564 -4 L 120.77917525299382 -4 Z" fill="rgb(0, 0, 0)" stroke="rgb(51, 51, 51)" stroke-width="0px"/><text class="type" text-anchor="middle" baseline-shift="30%" alignment-baseline="alphabetic" x="286.18952736912513" y="0" font-size="50px" font-family="'Gill Sans', 'Gill Sans MT', Calibri, sans-serif">as</text></g></g><g class="related-pair"><g class="relationship" transform="translate(332.0081024169922,652.9291076660156) rotate(0)"><path class="relationship" d="M 169.32922818075923 4 L 460.9254620377195 4 L 460.9254620377195 16 L 492.9254620377195 0 L 460.9254620377195 -16 L 460.9254620377195 -4 L 169.32922818075923 -4 Z" fill="rgb(0, 0, 0)" stroke="rgb(51, 51, 51)" stroke-width="0px"/><text class="type" text-anchor="middle" baseline-shift="30%" alignment-baseline="alphabetic" x="315.1273451092394" y="0" font-size="50px" font-family="'Gill Sans', 'Gill Sans MT', Calibri, sans-serif">can haz</text></g></g><g class="related-pair"><g class="relationship" transform="translate(968.3284912109375,0) rotate(90)"><path class="relationship" d="M 105.98090024443984 4 L 477.5341809097898 4 L 477.5341809097898 16 L 509.5341809097898 0 L 477.5341809097898 -16 L 477.5341809097898 -4 L 105.98090024443984 -4 Z" fill="rgb(0, 0, 0)" stroke="rgb(51, 51, 51)" stroke-width="0px"/><text class="type" text-anchor="middle" baseline-shift="30%" alignment-baseline="alphabetic" x="291.7575405771148" y="0" font-size="50px" font-family="'Gill Sans', 'Gill Sans MT', Calibri, sans-serif">can haz</text></g></g><g class="related-pair"><g class="relationship" transform="translate(-85.73250389099121,0) rotate(130.39365693895815)"><path class="relationship" d="M 102.24404735945839 4 L 286.4834917678887 4 L 286.4834917678887 16 L 318.4834917678887 0 L 286.4834917678887 -16 L 286.4834917678887 -4 L 102.24404735945839 -4 Z" fill="rgb(0, 0, 0)" stroke="rgb(51, 51, 51)" stroke-width="0px"/><text class="type" text-anchor="middle" baseline-shift="30%" alignment-baseline="alphabetic" transform="rotate(180)" x="-194.36376956367354" y="0" font-size="50px" font-family="'Gill Sans', 'Gill Sans MT', Calibri, sans-serif">is</text></g></g><g class="related-pair"><g class="relationship" transform="translate(968.3284912109375,0) rotate(137.83820362440795)"><path class="relationship" d="M 105.98090024443984 4 L 283.5192160013171 4 L 283.5192160013171 16 L 315.5192160013171 0 L 283.5192160013171 -16 L 283.5192160013171 -4 L 105.98090024443984 -4 Z" fill="rgb(0, 0, 0)" stroke="rgb(51, 51, 51)" stroke-width="0px"/><text class="type" text-anchor="middle" baseline-shift="30%" alignment-baseline="alphabetic" transform="rotate(180)" x="-194.75005812287844" y="0" font-size="50px" font-family="'Gill Sans', 'Gill Sans MT', Calibri, sans-serif">can haz</text></g></g><g class="related-pair"><g class="relationship" transform="translate(332.0081024169922,652.9291076660156) rotate(-48.74070913689644)"><path class="relationship" d="M 169.32922818075923 4 L 363.0575503671064 4 L 363.0575503671064 16 L 395.0575503671064 0 L 363.0575503671064 -16 L 363.0575503671064 -4 L 169.32922818075923 -4 Z" fill="rgb(0, 0, 0)" stroke="rgb(51, 51, 51)" stroke-width="0px"/><text class="type" text-anchor="middle" baseline-shift="30%" alignment-baseline="alphabetic" x="266.1933892739328" y="0" font-size="50px" font-family="'Gill Sans', 'Gill Sans MT', Calibri, sans-serif">can haz</text></g></g></g><g class="layer nodes"><circle class="node node-id-0" r="87.24404735945839" fill="rgb(255, 255, 255)" stroke="rgb(0, 0, 0)" stroke-width="8px" cx="-85.73250389099121" cy="0"/><circle class="node node-id-1" r="138.47384651043927" fill="rgb(255, 255, 255)" stroke="rgb(0, 0, 0)" stroke-width="8px" cx="-85.73250389099121" cy="499.4858913421631"/><circle class="node node-id-2" r="105.77917525299382" fill="rgb(255, 255, 255)" stroke="rgb(0, 0, 0)" stroke-width="8px" cx="332.0081024169922" cy="0"/><circle class="node node-id-3" r="90.98090024443984" fill="rgb(255, 255, 255)" stroke="rgb(0, 0, 0)" stroke-width="8px" cx="968.3284912109375" cy="0"/><circle class="node node-id-4" r="154.32922818075923" fill="rgb(255, 255, 255)" stroke="rgb(0, 0, 0)" stroke-width="8px" cx="332.0081024169922" cy="652.9291076660156"/><circle class="node node-id-5" r="128.39492675622577" fill="rgb(255, 255, 255)" stroke="rgb(0, 0, 0)" stroke-width="8px" cx="968.3284912109375" cy="652.9291076660156"/><circle class="node node-id-6" r="69.17220345968472" fill="rgb(255, 255, 255)" stroke="rgb(0, 0, 0)" stroke-width="8px" cx="-346.667724609375" cy="306.6666259765625"/><circle class="node node-id-7" r="86.3145600891813" fill="rgb(255, 255, 255)" stroke="rgb(0, 0, 0)" stroke-width="8px" cx="659.3494873046875" cy="279.7898712158203"/><g class="caption"><text class="caption node" text-anchor="middle" alignment-baseline="central" x="-85.73250389099121" y="0" font-size="50px" font-family="'Gill Sans', 'Gill Sans MT', Calibri, sans-serif">Neo4j</text></g><g class="caption"><text class="caption node" text-anchor="middle" alignment-baseline="central" x="-85.73250389099121" y="449.4858913421631" font-size="50px" font-family="'Gill Sans', 'Gill Sans MT', Calibri, sans-serif">A</text><text class="caption node" text-anchor="middle" alignment-baseline="central" x="-85.73250389099121" y="499.4858913421631" font-size="50px" font-family="'Gill Sans', 'Gill Sans MT', Calibri, sans-serif">Graph</text><text class="caption node" text-anchor="middle" alignment-baseline="central" x="-85.73250389099121" y="549.4858913421631" font-size="50px" font-family="'Gill Sans', 'Gill Sans MT', Calibri, sans-serif">Database</text></g><g class="caption"><text class="caption node" text-anchor="middle" alignment-baseline="central" x="332.0081024169922" y="-25" font-size="50px" font-family="'Gill Sans', 'Gill Sans MT', Calibri, sans-serif">Your</text><text class="caption node" text-anchor="middle" alignment-baseline="central" x="332.0081024169922" y="25" font-size="50px" font-family="'Gill Sans', 'Gill Sans MT', Calibri, sans-serif">data</text></g><g class="caption"><text class="caption node" text-anchor="middle" alignment-baseline="central" x="968.3284912109375" y="0" font-size="50px" font-family="'Gill Sans', 'Gill Sans MT', Calibri, sans-serif">Nodes</text></g><g class="caption"><text class="caption node" text-anchor="middle" alignment-baseline="central" x="332.0081024169922" y="652.9291076660156" font-size="50px" font-family="'Gill Sans', 'Gill Sans MT', Calibri, sans-serif">Relationships</text></g><g class="caption"><text class="caption node" text-anchor="middle" alignment-baseline="central" x="968.3284912109375" y="652.9291076660156" font-size="50px" font-family="'Gill Sans', 'Gill Sans MT', Calibri, sans-serif">Properties</text></g><g class="caption"><text class="caption node" text-anchor="middle" alignment-baseline="central" x="-346.667724609375" y="306.6666259765625" font-size="50px" font-family="'Gill Sans', 'Gill Sans MT', Calibri, sans-serif">OSS</text></g><g class="caption"><text class="caption node" text-anchor="middle" alignment-baseline="central" x="659.3494873046875" y="279.7898712158203" font-size="50px" font-family="'Gill Sans', 'Gill Sans MT', Calibri, sans-serif">Labels</text></g></g><g class="layer properties"><g class="speech-bubble node-speech-bubble" transform="translate(1059.1174145902148,743.718031045293) "><path class="speech-bubble-outline" transform="scale(1,1) " d="M 0 0 L 30 20 L 197 20 A 10 10 0 0 1 207 30 L 207 80 A 10 10 0 0 1 197 90 L 30 90 A 10 10 0 0 1 20 80 L 20 30 Z" fill="rgb(255, 255, 255)" stroke="rgb(0, 0, 0)" stroke-width="3px"/><text class="speech-bubble-content property-key" x="125" y="55" alignment-baseline="central" text-anchor="end" font-size="50px" font-family="'Gill Sans', 'Gill Sans MT', Calibri, sans-serif" xml:space="preserve">like: </text><text class="speech-bubble-content property-value" x="125" y="55" alignment-baseline="central" font-size="50px" font-family="'Gill Sans', 'Gill Sans MT', Calibri, sans-serif">this</text></g></g><g class="layer overlay"><circle class="node overlay" r="91.24404735945839" stroke="none" fill="rgba(255, 255, 255, 0)" cx="-85.73250389099121" cy="0"/><circle class="node overlay" r="142.47384651043927" stroke="none" fill="rgba(255, 255, 255, 0)" cx="-85.73250389099121" cy="499.4858913421631"/><circle class="node overlay" r="109.77917525299382" stroke="none" fill="rgba(255, 255, 255, 0)" cx="332.0081024169922" cy="0"/><circle class="node overlay" r="94.98090024443984" stroke="none" fill="rgba(255, 255, 255, 0)" cx="968.3284912109375" cy="0"/><circle class="node overlay" r="158.32922818075923" stroke="none" fill="rgba(255, 255, 255, 0)" cx="332.0081024169922" cy="652.9291076660156"/><circle class="node overlay" r="132.39492675622577" stroke="none" fill="rgba(255, 255, 255, 0)" cx="968.3284912109375" cy="652.9291076660156"/><circle class="node overlay" r="73.17220345968472" stroke="none" fill="rgba(255, 255, 255, 0)" cx="-346.667724609375" cy="306.6666259765625"/><circle class="node overlay" r="90.3145600891813" stroke="none" fill="rgba(255, 255, 255, 0)" cx="659.3494873046875" cy="279.7898712158203"/><circle class="node ring" r="96.24404735945839" fill="none" stroke="rgba(255, 255, 255, 0)" stroke-width="10px" cx="-85.73250389099121" cy="0"/><circle class="node ring" r="147.47384651043927" fill="none" stroke="rgba(255, 255, 255, 0)" stroke-width="10px" cx="-85.73250389099121" cy="499.4858913421631"/><circle class="node ring" r="114.77917525299382" fill="none" stroke="rgba(255, 255, 255, 0)" stroke-width="10px" cx="332.0081024169922" cy="0"/><circle class="node ring" r="99.98090024443984" fill="none" stroke="rgba(255, 255, 255, 0)" stroke-width="10px" cx="968.3284912109375" cy="0"/><circle class="node ring" r="163.32922818075923" fill="none" stroke="rgba(255, 255, 255, 0)" stroke-width="10px" cx="332.0081024169922" cy="652.9291076660156"/><circle class="node ring" r="137.39492675622577" fill="none" stroke="rgba(255, 255, 255, 0)" stroke-width="10px" cx="968.3284912109375" cy="652.9291076660156"/><circle class="node ring" r="78.17220345968472" fill="none" stroke="rgba(255, 255, 255, 0)" stroke-width="10px" cx="-346.667724609375" cy="306.6666259765625"/><circle class="node ring" r="95.3145600891813" fill="none" stroke="rgba(255, 255, 255, 0)" stroke-width="10px" cx="659.3494873046875" cy="279.7898712158203"/><path class="relationship overlay" fill="rgba(255, 255, 255, 0)" stroke="rgba(255, 255, 255, 0)" stroke-width="10px" transform="translate(-85.73250389099121,0) rotate(90)" d="M 102.24404735945839 4 L 314.0120448317238 4 L 314.0120448317238 16 L 346.0120448317238 0 L 314.0120448317238 -16 L 314.0120448317238 -4 L 102.24404735945839 -4 Z"/><path class="relationship overlay" fill="rgba(255, 255, 255, 0)" stroke="rgba(255, 255, 255, 0)" stroke-width="10px" transform="translate(-85.73250389099121,0) rotate(0)" d="M 102.24404735945839 4 L 264.9614310549896 4 L 264.9614310549896 16 L 296.9614310549896 0 L 264.9614310549896 -16 L 264.9614310549896 -4 L 102.24404735945839 -4 Z"/><path class="relationship overlay" fill="rgba(255, 255, 255, 0)" stroke="rgba(255, 255, 255, 0)" stroke-width="10px" transform="translate(332.0081024169922,0) rotate(0)" d="M 120.77917525299382 4 L 498.3394885495055 4 L 498.3394885495055 16 L 530.3394885495055 0 L 498.3394885495055 -16 L 498.3394885495055 -4 L 120.77917525299382 -4 Z"/><path class="relationship overlay" fill="rgba(255, 255, 255, 0)" stroke="rgba(255, 255, 255, 0)" stroke-width="10px" transform="translate(332.0081024169922,0) rotate(90)" d="M 120.77917525299382 4 L 451.5998794852564 4 L 451.5998794852564 16 L 483.5998794852564 0 L 451.5998794852564 -16 L 451.5998794852564 -4 L 120.77917525299382 -4 Z"/><path class="relationship overlay" fill="rgba(255, 255, 255, 0)" stroke="rgba(255, 255, 255, 0)" stroke-width="10px" transform="translate(332.0081024169922,652.9291076660156) rotate(0)" d="M 169.32922818075923 4 L 460.9254620377195 4 L 460.9254620377195 16 L 492.9254620377195 0 L 460.9254620377195 -16 L 460.9254620377195 -4 L 169.32922818075923 -4 Z"/><path class="relationship overlay" fill="rgba(255, 255, 255, 0)" stroke="rgba(255, 255, 255, 0)" stroke-width="10px" transform="translate(968.3284912109375,0) rotate(90)" d="M 105.98090024443984 4 L 477.5341809097898 4 L 477.5341809097898 16 L 509.5341809097898 0 L 477.5341809097898 -16 L 477.5341809097898 -4 L 105.98090024443984 -4 Z"/><path class="relationship overlay" fill="rgba(255, 255, 255, 0)" stroke="rgba(255, 255, 255, 0)" stroke-width="10px" transform="translate(-85.73250389099121,0) rotate(130.39365693895815)" d="M 102.24404735945839 4 L 286.4834917678887 4 L 286.4834917678887 16 L 318.4834917678887 0 L 286.4834917678887 -16 L 286.4834917678887 -4 L 102.24404735945839 -4 Z"/><path class="relationship overlay" fill="rgba(255, 255, 255, 0)" stroke="rgba(255, 255, 255, 0)" stroke-width="10px" transform="translate(968.3284912109375,0) rotate(137.83820362440795)" d="M 105.98090024443984 4 L 283.5192160013171 4 L 283.5192160013171 16 L 315.5192160013171 0 L 283.5192160013171 -16 L 283.5192160013171 -4 L 105.98090024443984 -4 Z"/><path class="relationship overlay" fill="rgba(255, 255, 255, 0)" stroke="rgba(255, 255, 255, 0)" stroke-width="10px" transform="translate(332.0081024169922,652.9291076660156) rotate(-48.74070913689644)" d="M 169.32922818075923 4 L 363.0575503671064 4 L 363.0575503671064 16 L 395.0575503671064 0 L 363.0575503671064 -16 L 363.0575503671064 -4 L 169.32922818075923 -4 Z"/></g></svg>