<svg xmlns="http://www.w3.org/2000/svg" class="graphdiagram" viewBox="-899.6997532560512 -619.5134739591762 2560 1275"><g class="layer relationships"><g class="related-pair"><g class="relationship" transform="translate(2,-335) rotate(19.21891105572185)"><path class="relationship" d="M 127.40770846134703 4 L 415.34236740270364 4 L 415.34236740270364 16 L 447.34236740270364 0 L 415.34236740270364 -16 L 415.34236740270364 -4 L 127.40770846134703 -4 Z" fill="rgb(0, 0, 0)" stroke="rgb(51, 51, 51)" stroke-width="0px"/><text class="type" text-anchor="middle" baseline-shift="30%" alignment-baseline="alphabetic" x="271.3750379320253" y="0" font-size="50px" font-family="'Gill Sans', 'Gill Sans MT', Calibri, sans-serif">MEMBER OF</text></g></g><g class="related-pair"><g class="relationship" transform="translate(1183.143310546875,-383.96337890625) rotate(159.2402307886953)"><path class="relationship" d="M 127.40770846134703 4 L 512.1029733493061 4 L 512.1029733493061 16 L 544.1029733493061 0 L 512.1029733493061 -16 L 512.1029733493061 -4 L 127.40770846134703 -4 Z" fill="rgb(0, 0, 0)" stroke="rgb(51, 51, 51)" stroke-width="0px"/><text class="type" text-anchor="middle" baseline-shift="30%" alignment-baseline="alphabetic" transform="rotate(180)" x="-319.75534090532653" y="0" font-size="50px" font-family="'Gill Sans', 'Gill Sans MT', Calibri, sans-serif">MEMBER OF</text></g></g><g class="related-pair"><g class="relationship" transform="translate(1183.143310546875,-383.96337890625) rotate(90)"><path class="relationship" d="M 127.40770846134703 4 L 633.3045421913803 4 L 633.3045421913803 16 L 665.3045421913803 0 L 633.3045421913803 -16 L 633.3045421913803 -4 L 127.40770846134703 -4 Z" fill="rgb(0, 0, 0)" stroke="rgb(51, 51, 51)" stroke-width="0px"/><text class="type" text-anchor="middle" baseline-shift="30%" alignment-baseline="alphabetic" x="380.35612532636367" y="0" font-size="50px" font-family="'Gill Sans', 'Gill Sans MT', Calibri, sans-serif">MEMBER OF</text></g></g><g class="related-pair"><g class="relationship" transform="translate(327.940185546875,414.3426513671875) rotate(0)"><path class="relationship" d="M 127.40770846134703 4 L 690.2016369179428 4 L 690.2016369179428 16 L 722.2016369179428 0 L 690.2016369179428 -16 L 690.2016369179428 -4 L 127.40770846134703 -4 Z" fill="rgb(0, 0, 0)" stroke="rgb(51, 51, 51)" stroke-width="0px"/><text class="type" text-anchor="middle" baseline-shift="30%" alignment-baseline="alphabetic" x="408.8046726896449" y="0" font-size="50px" font-family="'Gill Sans', 'Gill Sans MT', Calibri, sans-serif">MEMBER OF</text></g></g><g class="related-pair"><g class="relationship" transform="translate(327.940185546875,414.3426513671875) rotate(180)"><path class="relationship" d="M 127.40770846134703 4 L 461.4985119179428 4 L 461.4985119179428 16 L 493.4985119179428 0 L 461.4985119179428 -16 L 461.4985119179428 -4 L 127.40770846134703 -4 Z" fill="rgb(0, 0, 0)" stroke="rgb(51, 51, 51)" stroke-width="0px"/><text class="type" text-anchor="middle" baseline-shift="30%" alignment-baseline="alphabetic" transform="rotate(180)" x="-294.4531101896449" y="0" font-size="50px" font-family="'Gill Sans', 'Gill Sans MT', Calibri, sans-serif">MEMBER OF</text></g></g><g class="related-pair"><g class="relationship" transform="translate(-428.1365966796875,-230.31039428710938) rotate(78.63485618640074)"><path class="relationship" d="M 127.40770846134703 4 L 492.54523403246367 4 L 492.54523403246367 16 L 524.5452340324637 0 L 492.54523403246367 -16 L 492.54523403246367 -4 L 127.40770846134703 -4 Z" fill="rgb(0, 0, 0)" stroke="rgb(51, 51, 51)" stroke-width="0px"/><text class="type" text-anchor="middle" baseline-shift="30%" alignment-baseline="alphabetic" x="309.97647124690536" y="0" font-size="50px" font-family="'Gill Sans', 'Gill Sans MT', Calibri, sans-serif">MEMBER OF</text></g></g><g class="related-pair"><g class="relationship" transform="translate(2,-335) rotate(111.85562076077025)"><path class="relationship" d="M 127.40770846134703 4 L 642.3711713646838 4 L 642.3711713646838 16 L 674.3711713646838 0 L 642.3711713646838 -16 L 642.3711713646838 -4 L 127.40770846134703 -4 Z" fill="rgb(0, 0, 0)" stroke="rgb(51, 51, 51)" stroke-width="0px"/><text class="type" text-anchor="middle" baseline-shift="30%" alignment-baseline="alphabetic" transform="rotate(180)" x="-384.8894399130154" y="0" font-size="50px" font-family="'Gill Sans', 'Gill Sans MT', Calibri, sans-serif">MEMBER OF</text></g></g></g><g class="layer nodes"><circle class="node node-id-0" r="112.40770846134703" fill="rgb(255, 255, 255)" stroke="rgb(0, 0, 0)" stroke-width="8px" cx="2" cy="-335"/><g class="caption"><text class="caption node" text-anchor="middle" alignment-baseline="central" x="2" y="-335" font-size="50px" font-family="'Gill Sans', 'Gill Sans MT', Calibri, sans-serif">Person 1</text></g><circle class="node node-id-1" r="118.00148808205721" fill="rgb(255, 255, 255)" stroke="rgb(0, 0, 0)" stroke-width="8px" cx="550" cy="-143.96337890625"/><g class="caption"><text class="caption node" text-anchor="middle" alignment-baseline="central" x="550" y="-168.96337890625" font-size="50px" font-family="'Gill Sans', 'Gill Sans MT', Calibri, sans-serif">Group</text><text class="caption node" text-anchor="middle" alignment-baseline="central" x="550" y="-118.96337890625" font-size="50px" font-family="'Gill Sans', 'Gill Sans MT', Calibri, sans-serif">1</text></g><circle class="node node-id-2" r="112.40770846134703" fill="rgb(255, 255, 255)" stroke="rgb(0, 0, 0)" stroke-width="8px" cx="1183.143310546875" cy="-383.96337890625"/><g class="caption"><text class="caption node" text-anchor="middle" alignment-baseline="central" x="1183.143310546875" y="-383.96337890625" font-size="50px" font-family="'Gill Sans', 'Gill Sans MT', Calibri, sans-serif">Person 2</text></g><circle class="node node-id-3" r="118.00148808205721" fill="rgb(255, 255, 255)" stroke="rgb(0, 0, 0)" stroke-width="8px" cx="1183.143310546875" cy="414.3426513671875"/><g class="caption"><text class="caption node" text-anchor="middle" alignment-baseline="central" x="1183.143310546875" y="389.3426513671875" font-size="50px" font-family="'Gill Sans', 'Gill Sans MT', Calibri, sans-serif">Group</text><text class="caption node" text-anchor="middle" alignment-baseline="central" x="1183.143310546875" y="439.3426513671875" font-size="50px" font-family="'Gill Sans', 'Gill Sans MT', Calibri, sans-serif">2 </text></g><circle class="node node-id-4" r="112.40770846134703" fill="rgb(255, 255, 255)" stroke="rgb(0, 0, 0)" stroke-width="8px" cx="327.940185546875" cy="414.3426513671875"/><g class="caption"><text class="caption node" text-anchor="middle" alignment-baseline="central" x="327.940185546875" y="414.3426513671875" font-size="50px" font-family="'Gill Sans', 'Gill Sans MT', Calibri, sans-serif">Person 3</text></g><circle class="node node-id-5" r="118.00148808205721" fill="rgb(255, 255, 255)" stroke="rgb(0, 0, 0)" stroke-width="8px" cx="-298.559814453125" cy="414.3426513671875"/><g class="caption"><text class="caption node" text-anchor="middle" alignment-baseline="central" x="-298.559814453125" y="389.3426513671875" font-size="50px" font-family="'Gill Sans', 'Gill Sans MT', Calibri, sans-serif">Group</text><text class="caption node" text-anchor="middle" alignment-baseline="central" x="-298.559814453125" y="439.3426513671875" font-size="50px" font-family="'Gill Sans', 'Gill Sans MT', Calibri, sans-serif">3</text></g><circle class="node node-id-6" r="112.40770846134703" fill="rgb(255, 255, 255)" stroke="rgb(0, 0, 0)" stroke-width="8px" cx="-428.1365966796875" cy="-230.31039428710938"/><g class="caption"><text class="caption node" text-anchor="middle" alignment-baseline="central" x="-428.1365966796875" y="-230.31039428710938" font-size="50px" font-family="'Gill Sans', 'Gill Sans MT', Calibri, sans-serif">Person 4</text></g></g><g class="layer properties"/><g class="layer overlay"><circle class="node overlay" r="116.40770846134703" stroke="none" fill="rgba(255, 255, 255, 0)" cx="2" cy="-335"/><circle class="node ring" r="121.40770846134703" fill="none" stroke="rgba(255, 255, 255, 0)" stroke-width="10px" cx="2" cy="-335"/><circle class="node overlay" r="122.00148808205721" stroke="none" fill="rgba(255, 255, 255, 0)" cx="550" cy="-143.96337890625"/><circle class="node ring" r="127.00148808205721" fill="none" stroke="rgba(255, 255, 255, 0)" stroke-width="10px" cx="550" cy="-143.96337890625"/><path class="relationship overlay" fill="rgba(255, 255, 255, 0)" stroke="rgba(255, 255, 255, 0)" stroke-width="10px" transform="translate(2,-335) rotate(19.21891105572185)" d="M 127.40770846134703 4 L 415.34236740270364 4 L 415.34236740270364 16 L 447.34236740270364 0 L 415.34236740270364 -16 L 415.34236740270364 -4 L 127.40770846134703 -4 Z"/><circle class="node overlay" r="116.40770846134703" stroke="none" fill="rgba(255, 255, 255, 0)" cx="1183.143310546875" cy="-383.96337890625"/><circle class="node ring" r="121.40770846134703" fill="none" stroke="rgba(255, 255, 255, 0)" stroke-width="10px" cx="1183.143310546875" cy="-383.96337890625"/><path class="relationship overlay" fill="rgba(255, 255, 255, 0)" stroke="rgba(255, 255, 255, 0)" stroke-width="10px" transform="translate(1183.143310546875,-383.96337890625) rotate(159.2402307886953)" d="M 127.40770846134703 4 L 512.1029733493061 4 L 512.1029733493061 16 L 544.1029733493061 0 L 512.1029733493061 -16 L 512.1029733493061 -4 L 127.40770846134703 -4 Z"/><circle class="node overlay" r="122.00148808205721" stroke="none" fill="rgba(255, 255, 255, 0)" cx="1183.143310546875" cy="414.3426513671875"/><circle class="node ring" r="127.00148808205721" fill="none" stroke="rgba(255, 255, 255, 0)" stroke-width="10px" cx="1183.143310546875" cy="414.3426513671875"/><path class="relationship overlay" fill="rgba(255, 255, 255, 0)" stroke="rgba(255, 255, 255, 0)" stroke-width="10px" transform="translate(1183.143310546875,-383.96337890625) rotate(90)" d="M 127.40770846134703 4 L 633.3045421913803 4 L 633.3045421913803 16 L 665.3045421913803 0 L 633.3045421913803 -16 L 633.3045421913803 -4 L 127.40770846134703 -4 Z"/><circle class="node overlay" r="116.40770846134703" stroke="none" fill="rgba(255, 255, 255, 0)" cx="327.940185546875" cy="414.3426513671875"/><circle class="node ring" r="121.40770846134703" fill="none" stroke="rgba(255, 255, 255, 0)" stroke-width="10px" cx="327.940185546875" cy="414.3426513671875"/><path class="relationship overlay" fill="rgba(255, 255, 255, 0)" stroke="rgba(255, 255, 255, 0)" stroke-width="10px" transform="translate(327.940185546875,414.3426513671875) rotate(0)" d="M 127.40770846134703 4 L 690.2016369179428 4 L 690.2016369179428 16 L 722.2016369179428 0 L 690.2016369179428 -16 L 690.2016369179428 -4 L 127.40770846134703 -4 Z"/><circle class="node overlay" r="122.00148808205721" stroke="none" fill="rgba(255, 255, 255, 0)" cx="-298.559814453125" cy="414.3426513671875"/><circle class="node ring" r="127.00148808205721" fill="none" stroke="rgba(255, 255, 255, 0)" stroke-width="10px" cx="-298.559814453125" cy="414.3426513671875"/><path class="relationship overlay" fill="rgba(255, 255, 255, 0)" stroke="rgba(255, 255, 255, 0)" stroke-width="10px" transform="translate(327.940185546875,414.3426513671875) rotate(180)" d="M 127.40770846134703 4 L 461.4985119179428 4 L 461.4985119179428 16 L 493.4985119179428 0 L 461.4985119179428 -16 L 461.4985119179428 -4 L 127.40770846134703 -4 Z"/><circle class="node overlay" r="116.40770846134703" stroke="none" fill="rgba(255, 255, 255, 0)" cx="-428.1365966796875" cy="-230.31039428710938"/><circle class="node ring" r="121.40770846134703" fill="none" stroke="rgba(255, 255, 255, 0)" stroke-width="10px" cx="-428.1365966796875" cy="-230.31039428710938"/><path class="relationship overlay" fill="rgba(255, 255, 255, 0)" stroke="rgba(255, 255, 255, 0)" stroke-width="10px" transform="translate(-428.1365966796875,-230.31039428710938) rotate(78.63485618640074)" d="M 127.40770846134703 4 L 492.54523403246367 4 L 492.54523403246367 16 L 524.5452340324637 0 L 492.54523403246367 -16 L 492.54523403246367 -4 L 127.40770846134703 -4 Z"/><path class="relationship overlay" fill="rgba(255, 255, 255, 0)" stroke="rgba(255, 255, 255, 0)" stroke-width="10px" transform="translate(2,-335) rotate(111.85562076077025)" d="M 127.40770846134703 4 L 642.3711713646838 4 L 642.3711713646838 16 L 674.3711713646838 0 L 642.3711713646838 -16 L 642.3711713646838 -4 L 127.40770846134703 -4 Z"/></g></svg>