<svg xmlns="http://www.w3.org/2000/svg" class="graphdiagram" viewBox="-873.0160621895083 -337.1381394676523 2560 1275"><g class="layer relationships"><g class="related-pair"><g class="relationship" transform="translate(1233.4715881347656,179) rotate(142.57932771499685)"><path class="relationship" d="M 105.98090024443984 4 L 653.8666544308533 4 L 653.8666544308533 16 L 685.8666544308533 0 L 653.8666544308533 -16 L 653.8666544308533 -4 L 105.98090024443984 -4 Z" fill="rgb(0, 0, 0)" stroke="rgb(51, 51, 51)" stroke-width="0px"/><text class="type" text-anchor="middle" baseline-shift="30%" alignment-baseline="alphabetic" x="-379.9237773376466" y="0" font-size="50px" font-family="'Gill Sans', 'Gill Sans MT', Calibri, sans-serif" transform="rotate(180)">HOSTED EVENT</text></g></g><g class="related-pair"><g class="relationship" transform="translate(612.6882934570312,653.9796695709229) rotate(0)"><path class="relationship" d="M 95.78389757857624 4 L 486.0737611325269 4 L 486.0737611325269 16 L 518.0737611325269 0 L 486.0737611325269 -16 L 486.0737611325269 -4 L 95.78389757857624 -4 Z" fill="rgb(0, 0, 0)" stroke="rgb(51, 51, 51)" stroke-width="0px"/><text class="type" text-anchor="middle" baseline-shift="30%" alignment-baseline="alphabetic" x="290.92882935555156" y="0" font-size="50px" font-family="'Gill Sans', 'Gill Sans MT', Calibri, sans-serif">HELD AT</text></g></g><g class="related-pair"><g class="relationship" transform="translate(-398.076904296875,-28.55777359008789) rotate(50.47457129758578)"><path class="relationship" d="M 127.40770846134703 4 L 777.069705097153 4 L 777.069705097153 16 L 809.069705097153 0 L 777.069705097153 -16 L 777.069705097153 -4 L 127.40770846134703 -4 Z" fill="rgb(0, 0, 0)" stroke="rgb(51, 51, 51)" stroke-width="0px"/><text class="type" text-anchor="middle" baseline-shift="30%" alignment-baseline="alphabetic" x="452.23870677925004" y="0" font-size="50px" font-family="'Gill Sans', 'Gill Sans MT', Calibri, sans-serif">RSVPD</text></g></g><g class="related-pair"><g class="relationship" transform="translate(165.07249450683594,653.9796695709229) rotate(0)"><path class="relationship" d="M 75.80011961705372 4 L 319.8319013716191 4 L 319.8319013716191 16 L 351.8319013716191 0 L 319.8319013716191 -16 L 319.8319013716191 -4 L 75.80011961705372 -4 Z" fill="rgb(0, 0, 0)" stroke="rgb(51, 51, 51)" stroke-width="0px"/><text class="type" text-anchor="middle" baseline-shift="30%" alignment-baseline="alphabetic" x="197.8160104943364" y="0" font-size="50px" font-family="'Gill Sans', 'Gill Sans MT', Calibri, sans-serif">TO</text></g></g><g class="related-pair"><g class="relationship" transform="translate(-398.076904296875,-28.55777359008789) rotate(90)"><path class="relationship" d="M 127.40770846134703 4 L 572.2966249045635 4 L 572.2966249045635 16 L 604.2966249045635 0 L 572.2966249045635 -16 L 572.2966249045635 -4 L 127.40770846134703 -4 Z" fill="rgb(0, 0, 0)" stroke="rgb(51, 51, 51)" stroke-width="0px"/><text class="type" text-anchor="middle" baseline-shift="30%" alignment-baseline="alphabetic" x="349.85216668295527" y="0" font-size="50px" font-family="'Gill Sans', 'Gill Sans MT', Calibri, sans-serif">INITIALLY_RSVPD</text></g></g><g class="related-pair"><g class="relationship" transform="translate(-398.076904296875,653.9796695709229) rotate(0)"><path class="relationship" d="M 78.24081825644728 4 L 455.3492791866572 4 L 455.3492791866572 16 L 487.3492791866572 0 L 455.3492791866572 -16 L 455.3492791866572 -4 L 78.24081825644728 -4 Z" fill="rgb(0, 0, 0)" stroke="rgb(51, 51, 51)" stroke-width="0px"/><text class="type" text-anchor="middle" baseline-shift="30%" alignment-baseline="alphabetic" x="266.79504872155223" y="0" font-size="50px" font-family="'Gill Sans', 'Gill Sans MT', Calibri, sans-serif">NEXT</text></g></g><g class="related-pair"><g class="relationship" transform="translate(112,-28.55777359008789) rotate(24.208610427694424)"><path class="relationship" d="M 127.40770846134703 4 L 395.92345404819935 4 L 395.92345404819935 16 L 427.92345404819935 0 L 395.92345404819935 -16 L 395.92345404819935 -4 L 127.40770846134703 -4 Z" fill="rgb(0, 0, 0)" stroke="rgb(51, 51, 51)" stroke-width="0px"/><text class="type" text-anchor="middle" baseline-shift="30%" alignment-baseline="alphabetic" x="261.6655812547732" y="0" font-size="50px" font-family="'Gill Sans', 'Gill Sans MT', Calibri, sans-serif">RSVPD</text></g></g><g class="related-pair"><g class="relationship" transform="translate(573.6514282226562,179) rotate(85.30162617748785)"><path class="relationship" d="M 78.24081825644728 4 L 348.7972218051335 4 L 348.7972218051335 16 L 380.7972218051335 0 L 348.7972218051335 -16 L 348.7972218051335 -4 L 78.24081825644728 -4 Z" fill="rgb(0, 0, 0)" stroke="rgb(51, 51, 51)" stroke-width="0px"/><text class="type" text-anchor="middle" baseline-shift="30%" alignment-baseline="alphabetic" x="213.51902003079041" y="0" font-size="50px" font-family="'Gill Sans', 'Gill Sans MT', Calibri, sans-serif">TO</text></g></g></g><g class="layer nodes"><circle class="node node-id-0" r="112.40770846134703" fill="rgb(255, 255, 255)" stroke="rgb(0, 0, 0)" stroke-width="8px" cx="-398.076904296875" cy="-28.55777359008789"/><circle class="node node-id-1" r="63.24081825644729" fill="rgb(255, 255, 255)" stroke="rgb(0, 0, 0)" stroke-width="8px" cx="-398.076904296875" cy="653.9796695709229"/><circle class="node node-id-2" r="90.98090024443984" fill="rgb(255, 255, 255)" stroke="rgb(0, 0, 0)" stroke-width="8px" cx="1233.4715881347656" cy="179"/><circle class="node node-id-3" r="112.40770846134703" fill="rgb(255, 255, 255)" stroke="rgb(0, 0, 0)" stroke-width="8px" cx="112" cy="-28.55777359008789"/><circle class="node node-id-4" r="87.70953354520753" fill="rgb(255, 255, 255)" stroke="rgb(0, 0, 0)" stroke-width="8px" cx="1233.4715881347656" cy="653.9796695709229"/><g class="caption"><text class="caption node" text-anchor="middle" alignment-baseline="central" x="-398.076904296875" y="-28.55777359008789" font-size="50px" font-family="'Gill Sans', 'Gill Sans MT', Calibri, sans-serif">Person 1</text></g><g class="caption"><text class="caption node" text-anchor="middle" alignment-baseline="central" x="-398.076904296875" y="653.9796695709229" font-size="50px" font-family="'Gill Sans', 'Gill Sans MT', Calibri, sans-serif">Yes</text></g><g class="caption"><text class="caption node" text-anchor="middle" alignment-baseline="central" x="1233.4715881347656" y="179" font-size="50px" font-family="'Gill Sans', 'Gill Sans MT', Calibri, sans-serif">Group</text></g><g class="caption"><text class="caption node" text-anchor="middle" alignment-baseline="central" x="112" y="-28.55777359008789" font-size="50px" font-family="'Gill Sans', 'Gill Sans MT', Calibri, sans-serif">Person 2</text></g><g class="caption"><text class="caption node" text-anchor="middle" alignment-baseline="central" x="1233.4715881347656" y="653.9796695709229" font-size="50px" font-family="'Gill Sans', 'Gill Sans MT', Calibri, sans-serif">Venue</text></g><circle class="node node-id-6" r="80.78389757857624" fill="rgb(255, 255, 255)" stroke="rgb(0, 0, 0)" stroke-width="8px" cx="612.6882934570312" cy="653.9796695709229"/><g class="caption"><text class="caption node" text-anchor="middle" alignment-baseline="central" x="612.6882934570312" y="653.9796695709229" font-size="50px" font-family="'Gill Sans', 'Gill Sans MT', Calibri, sans-serif">Event</text></g><circle class="node node-id-6" r="60.80011961705373" fill="rgb(255, 255, 255)" stroke="rgb(0, 0, 0)" stroke-width="8px" cx="165.07249450683594" cy="653.9796695709229"/><g class="caption"><text class="caption node" text-anchor="middle" alignment-baseline="central" x="165.07249450683594" y="653.9796695709229" font-size="50px" font-family="'Gill Sans', 'Gill Sans MT', Calibri, sans-serif">No</text></g><circle class="node node-id-7" r="63.24081825644729" fill="rgb(255, 255, 255)" stroke="rgb(0, 0, 0)" stroke-width="8px" cx="573.6514282226562" cy="179"/><g class="caption"><text class="caption node" text-anchor="middle" alignment-baseline="central" x="573.6514282226562" y="179" font-size="50px" font-family="'Gill Sans', 'Gill Sans MT', Calibri, sans-serif">Yes</text></g></g><g class="layer properties"/><g class="layer overlay"><circle class="node overlay" r="116.40770846134703" stroke="none" fill="rgba(255, 255, 255, 0)" cx="-398.076904296875" cy="-28.55777359008789"/><circle class="node overlay" r="67.24081825644728" stroke="none" fill="rgba(255, 255, 255, 0)" cx="-398.076904296875" cy="653.9796695709229"/><circle class="node overlay" r="94.98090024443984" stroke="none" fill="rgba(255, 255, 255, 0)" cx="1233.4715881347656" cy="179"/><circle class="node overlay" r="116.40770846134703" stroke="none" fill="rgba(255, 255, 255, 0)" cx="112" cy="-28.55777359008789"/><circle class="node overlay" r="91.70953354520753" stroke="none" fill="rgba(255, 255, 255, 0)" cx="1233.4715881347656" cy="653.9796695709229"/><circle class="node ring" r="121.40770846134703" fill="none" stroke="rgba(255, 255, 255, 0)" stroke-width="10px" cx="-398.076904296875" cy="-28.55777359008789"/><circle class="node ring" r="72.24081825644728" fill="none" stroke="rgba(255, 255, 255, 0)" stroke-width="10px" cx="-398.076904296875" cy="653.9796695709229"/><circle class="node ring" r="99.98090024443984" fill="none" stroke="rgba(255, 255, 255, 0)" stroke-width="10px" cx="1233.4715881347656" cy="179"/><circle class="node ring" r="121.40770846134703" fill="none" stroke="rgba(255, 255, 255, 0)" stroke-width="10px" cx="112" cy="-28.55777359008789"/><circle class="node ring" r="96.70953354520753" fill="none" stroke="rgba(255, 255, 255, 0)" stroke-width="10px" cx="1233.4715881347656" cy="653.9796695709229"/><path class="relationship overlay" fill="rgba(255, 255, 255, 0)" stroke="rgba(255, 255, 255, 0)" stroke-width="10px" transform="translate(1233.4715881347656,179) rotate(142.57932771499685)" d="M 105.98090024443984 4 L 653.8666544308533 4 L 653.8666544308533 16 L 685.8666544308533 0 L 653.8666544308533 -16 L 653.8666544308533 -4 L 105.98090024443984 -4 Z"/><path class="relationship overlay" fill="rgba(255, 255, 255, 0)" stroke="rgba(255, 255, 255, 0)" stroke-width="10px" transform="translate(612.6882934570312,653.9796695709229) rotate(0)" d="M 95.78389757857624 4 L 486.0737611325269 4 L 486.0737611325269 16 L 518.0737611325269 0 L 486.0737611325269 -16 L 486.0737611325269 -4 L 95.78389757857624 -4 Z"/><path class="relationship overlay" fill="rgba(255, 255, 255, 0)" stroke="rgba(255, 255, 255, 0)" stroke-width="10px" transform="translate(-398.076904296875,-28.55777359008789) rotate(50.47457129758578)" d="M 127.40770846134703 4 L 777.069705097153 4 L 777.069705097153 16 L 809.069705097153 0 L 777.069705097153 -16 L 777.069705097153 -4 L 127.40770846134703 -4 Z"/><path class="relationship overlay" fill="rgba(255, 255, 255, 0)" stroke="rgba(255, 255, 255, 0)" stroke-width="10px" transform="translate(165.07249450683594,653.9796695709229) rotate(0)" d="M 75.80011961705372 4 L 319.8319013716191 4 L 319.8319013716191 16 L 351.8319013716191 0 L 319.8319013716191 -16 L 319.8319013716191 -4 L 75.80011961705372 -4 Z"/><circle class="node overlay" r="84.78389757857624" stroke="none" fill="rgba(255, 255, 255, 0)" cx="612.6882934570312" cy="653.9796695709229"/><circle class="node ring" r="89.78389757857624" fill="none" stroke="rgba(255, 255, 255, 0)" stroke-width="10px" cx="612.6882934570312" cy="653.9796695709229"/><path class="relationship overlay" fill="rgba(255, 255, 255, 0)" stroke="rgba(255, 255, 255, 0)" stroke-width="10px" transform="translate(-398.076904296875,-28.55777359008789) rotate(90)" d="M 127.40770846134703 4 L 572.2966249045635 4 L 572.2966249045635 16 L 604.2966249045635 0 L 572.2966249045635 -16 L 572.2966249045635 -4 L 127.40770846134703 -4 Z"/><path class="relationship overlay" fill="rgba(255, 255, 255, 0)" stroke="rgba(255, 255, 255, 0)" stroke-width="10px" transform="translate(-398.076904296875,653.9796695709229) rotate(0)" d="M 78.24081825644728 4 L 455.3492791866572 4 L 455.3492791866572 16 L 487.3492791866572 0 L 455.3492791866572 -16 L 455.3492791866572 -4 L 78.24081825644728 -4 Z"/><circle class="node overlay" r="64.80011961705372" stroke="none" fill="rgba(255, 255, 255, 0)" cx="165.07249450683594" cy="653.9796695709229"/><circle class="node ring" r="69.80011961705372" fill="none" stroke="rgba(255, 255, 255, 0)" stroke-width="10px" cx="165.07249450683594" cy="653.9796695709229"/><circle class="node overlay" r="67.24081825644728" stroke="none" fill="rgba(255, 255, 255, 0)" cx="573.6514282226562" cy="179"/><circle class="node ring" r="72.24081825644728" fill="none" stroke="rgba(255, 255, 255, 0)" stroke-width="10px" cx="573.6514282226562" cy="179"/><path class="relationship overlay" fill="rgba(255, 255, 255, 0)" stroke="rgba(255, 255, 255, 0)" stroke-width="10px" transform="translate(112,-28.55777359008789) rotate(24.208610427694424)" d="M 127.40770846134703 4 L 395.92345404819935 4 L 395.92345404819935 16 L 427.92345404819935 0 L 395.92345404819935 -16 L 395.92345404819935 -4 L 127.40770846134703 -4 Z"/><path class="relationship overlay" fill="rgba(255, 255, 255, 0)" stroke="rgba(255, 255, 255, 0)" stroke-width="10px" transform="translate(573.6514282226562,179) rotate(85.30162617748785)" d="M 78.24081825644728 4 L 348.7972218051335 4 L 348.7972218051335 16 L 380.7972218051335 0 L 348.7972218051335 -16 L 348.7972218051335 -4 L 78.24081825644728 -4 Z"/></g></svg>