<svg xmlns="http://www.w3.org/2000/svg" class="graphdiagram" viewBox="-1129.1901081240276 -790.9076929953658 2226.9574463567487 1204.7221185499357"><g class="layer relationships"><g class="related-pair"><g class="relationship" transform="translate(1002.7864379882812,151.4422264099121) rotate(-146.2320128891484)"><path class="relationship" d="M 105.98090024443984 4 L 509.9626457385882 4 L 509.9626457385882 16 L 541.9626457385882 0 L 509.9626457385882 -16 L 509.9626457385882 -4 L 105.98090024443984 -4 Z" fill="rgb(0, 0, 0)" stroke="rgb(51, 51, 51)" stroke-width="0px"/><text class="type" text-anchor="middle" baseline-shift="30%" alignment-baseline="alphabetic" x="-307.971772991514" y="0" font-size="50px" font-family="'Gill Sans', 'Gill Sans MT', Calibri, sans-serif" transform="rotate(180)">HAS TOPIC</text></g></g><g class="related-pair"><g class="relationship" transform="translate(-161.53356170654297,151.4422264099121) rotate(-29.30057292255535)"><path class="relationship" d="M 108.80140373014399 4 L 596.7301481567379 4 L 596.7301481567379 16 L 628.7301481567379 0 L 596.7301481567379 -16 L 596.7301481567379 -4 L 108.80140373014399 -4 Z" fill="rgb(0, 0, 0)" stroke="rgb(51, 51, 51)" stroke-width="0px"/><text class="type" text-anchor="middle" baseline-shift="30%" alignment-baseline="alphabetic" x="352.76577594344093" y="0" font-size="50px" font-family="'Gill Sans', 'Gill Sans MT', Calibri, sans-serif">INTERESTED IN</text></g></g><g class="related-pair"><g class="relationship" transform="translate(-161.53356170654297,151.4422264099121) rotate(0)"><path class="relationship" d="M 108.80140373014399 4 L 1026.3390994503843 4 L 1026.3390994503843 16 L 1058.3390994503843 0 L 1026.3390994503843 -16 L 1026.3390994503843 -4 L 108.80140373014399 -4 Z" fill="rgb(0, 0, 0)" stroke="rgb(51, 51, 51)" stroke-width="0px"/><text class="type" text-anchor="middle" baseline-shift="30%" alignment-baseline="alphabetic" x="567.5702515902642" y="0" font-size="50px" font-family="'Gill Sans', 'Gill Sans MT', Calibri, sans-serif">MEMBER OF</text></g></g><g class="related-pair"><g class="relationship" transform="translate(-161.53356170654297,151.4422264099121) rotate(-90)"><path class="relationship" d="M 108.80140373014399 4 L 389.9983083569905 4 L 389.9983083569905 16 L 421.9983083569905 0 L 389.9983083569905 -16 L 389.9983083569905 -4 L 108.80140373014399 -4 Z" fill="rgb(0, 0, 0)" stroke="rgb(51, 51, 51)" stroke-width="0px"/><text class="type" text-anchor="middle" baseline-shift="30%" alignment-baseline="alphabetic" x="249.39985604356724" y="0" font-size="50px" font-family="'Gill Sans', 'Gill Sans MT', Calibri, sans-serif">MEMBER OF</text></g></g><g class="related-pair"><g class="relationship" transform="translate(-161.53356170654297,151.4422264099121) rotate(180)"><path class="relationship" d="M 108.80140373014399 4 L 687.0118743741414 4 L 687.0118743741414 16 L 719.0118743741414 0 L 687.0118743741414 -16 L 687.0118743741414 -4 L 108.80140373014399 -4 Z" fill="rgb(0, 0, 0)" stroke="rgb(51, 51, 51)" stroke-width="0px"/><text class="type" text-anchor="middle" baseline-shift="30%" alignment-baseline="alphabetic" x="-397.9066390521427" y="0" font-size="50px" font-family="'Gill Sans', 'Gill Sans MT', Calibri, sans-serif" transform="rotate(180)">INTERESTED IN</text></g></g><g class="related-pair"><g class="relationship" transform="translate(-1010.367772102356,-528.535493850708) rotate(90)"><path class="relationship" d="M 129.82233602167162 4 L 518.1553842389485 4 L 518.1553842389485 16 L 550.1553842389485 0 L 518.1553842389485 -16 L 518.1553842389485 -4 L 129.82233602167162 -4 Z" fill="rgb(0, 0, 0)" stroke="rgb(51, 51, 51)" stroke-width="0px"/><text class="type" text-anchor="middle" baseline-shift="30%" alignment-baseline="alphabetic" x="323.98886013031006" y="0" font-size="50px" font-family="'Gill Sans', 'Gill Sans MT', Calibri, sans-serif">INTERESTED IN</text></g></g><g class="related-pair"><g class="relationship" transform="translate(-161.53356170654297,-400.37841796875) rotate(146.97241206309104)"><path class="relationship" d="M 129.82233602167162 4 L 850.6131139210718 4 L 850.6131139210718 16 L 882.6131139210718 0 L 850.6131139210718 -16 L 850.6131139210718 -4 L 129.82233602167162 -4 Z" fill="rgb(0, 0, 0)" stroke="rgb(51, 51, 51)" stroke-width="0px"/><text class="type" text-anchor="middle" baseline-shift="30%" alignment-baseline="alphabetic" transform="rotate(180)" x="-490.2177249713717" y="0" font-size="50px" font-family="'Gill Sans', 'Gill Sans MT', Calibri, sans-serif">HAS TOPIC</text></g></g></g><g class="layer nodes"><circle class="node node-id-0" r="93.80140373014399" fill="rgb(255, 255, 255)" stroke="rgb(0, 0, 0)" stroke-width="8px" cx="-161.53356170654297" cy="151.4422264099121"/><circle class="node node-id-1" r="114.82233602167163" fill="rgb(255, 255, 255)" stroke="rgb(0, 0, 0)" stroke-width="8px" cx="-161.53356170654297" cy="-400.37841796875"/><circle class="node node-id-2" r="90.98090024443984" fill="rgb(255, 255, 255)" stroke="rgb(0, 0, 0)" stroke-width="8px" cx="1002.7864379882812" cy="151.4422264099121"/><g class="caption"><text class="caption node" text-anchor="middle" alignment-baseline="central" x="-161.53356170654297" y="151.4422264099121" font-size="50px" font-family="'Gill Sans', 'Gill Sans MT', Calibri, sans-serif">Person</text></g><g class="caption"><text class="caption node" text-anchor="middle" alignment-baseline="central" x="-161.53356170654297" y="-425.37841796875" font-size="50px" font-family="'Gill Sans', 'Gill Sans MT', Calibri, sans-serif">Other</text><text class="caption node" text-anchor="middle" alignment-baseline="central" x="-161.53356170654297" y="-375.37841796875" font-size="50px" font-family="'Gill Sans', 'Gill Sans MT', Calibri, sans-serif">Group</text></g><g class="caption"><text class="caption node" text-anchor="middle" alignment-baseline="central" x="1002.7864379882812" y="151.4422264099121" font-size="50px" font-family="'Gill Sans', 'Gill Sans MT', Calibri, sans-serif">Group</text></g><circle class="node node-id-3" r="82.15853069855251" fill="rgb(255, 255, 255)" stroke="rgb(0, 0, 0)" stroke-width="8px" cx="471.48809814453125" cy="-203.80128479003906"/><g class="caption"><text class="caption node" text-anchor="middle" alignment-baseline="central" x="471.48809814453125" y="-203.80128479003906" font-size="50px" font-family="'Gill Sans', 'Gill Sans MT', Calibri, sans-serif">Topic</text></g><circle class="node node-id-4" r="114.82233602167163" fill="rgb(255, 255, 255)" stroke="rgb(0, 0, 0)" stroke-width="8px" cx="-1010.367772102356" cy="151.4422264099121"/><g class="caption"><text class="caption node" text-anchor="middle" alignment-baseline="central" x="-1010.367772102356" y="126.44222640991211" font-size="50px" font-family="'Gill Sans', 'Gill Sans MT', Calibri, sans-serif">Other</text><text class="caption node" text-anchor="middle" alignment-baseline="central" x="-1010.367772102356" y="176.4422264099121" font-size="50px" font-family="'Gill Sans', 'Gill Sans MT', Calibri, sans-serif">Topic</text></g><circle class="node node-id-5" r="114.82233602167163" fill="rgb(255, 255, 255)" stroke="rgb(0, 0, 0)" stroke-width="8px" cx="-1010.367772102356" cy="-528.535493850708"/><g class="caption"><text class="caption node" text-anchor="middle" alignment-baseline="central" x="-1010.367772102356" y="-553.535493850708" font-size="50px" font-family="'Gill Sans', 'Gill Sans MT', Calibri, sans-serif">Other</text><text class="caption node" text-anchor="middle" alignment-baseline="central" x="-1010.367772102356" y="-503.535493850708" font-size="50px" font-family="'Gill Sans', 'Gill Sans MT', Calibri, sans-serif">Person</text></g></g><g class="layer properties"/><g class="layer overlay"><circle class="node overlay" r="97.80140373014399" stroke="none" fill="rgba(255, 255, 255, 0)" cx="-161.53356170654297" cy="151.4422264099121"/><circle class="node overlay" r="118.82233602167163" stroke="none" fill="rgba(255, 255, 255, 0)" cx="-161.53356170654297" cy="-400.37841796875"/><circle class="node overlay" r="94.98090024443984" stroke="none" fill="rgba(255, 255, 255, 0)" cx="1002.7864379882812" cy="151.4422264099121"/><circle class="node ring" r="102.80140373014399" fill="none" stroke="rgba(255, 255, 255, 0)" stroke-width="10px" cx="-161.53356170654297" cy="151.4422264099121"/><circle class="node ring" r="123.82233602167163" fill="none" stroke="rgba(255, 255, 255, 0)" stroke-width="10px" cx="-161.53356170654297" cy="-400.37841796875"/><circle class="node ring" r="99.98090024443984" fill="none" stroke="rgba(255, 255, 255, 0)" stroke-width="10px" cx="1002.7864379882812" cy="151.4422264099121"/><path class="relationship overlay" fill="rgba(255, 255, 255, 0)" stroke="rgba(255, 255, 255, 0)" stroke-width="10px" transform="translate(1002.7864379882812,151.4422264099121) rotate(-146.2320128891484)" d="M 105.98090024443984 4 L 509.9626457385882 4 L 509.9626457385882 16 L 541.9626457385882 0 L 509.9626457385882 -16 L 509.9626457385882 -4 L 105.98090024443984 -4 Z"/><path class="relationship overlay" fill="rgba(255, 255, 255, 0)" stroke="rgba(255, 255, 255, 0)" stroke-width="10px" transform="translate(-161.53356170654297,151.4422264099121) rotate(-29.30057292255535)" d="M 108.80140373014399 4 L 596.7301481567379 4 L 596.7301481567379 16 L 628.7301481567379 0 L 596.7301481567379 -16 L 596.7301481567379 -4 L 108.80140373014399 -4 Z"/><path class="relationship overlay" fill="rgba(255, 255, 255, 0)" stroke="rgba(255, 255, 255, 0)" stroke-width="10px" transform="translate(-161.53356170654297,151.4422264099121) rotate(0)" d="M 108.80140373014399 4 L 1026.3390994503843 4 L 1026.3390994503843 16 L 1058.3390994503843 0 L 1026.3390994503843 -16 L 1026.3390994503843 -4 L 108.80140373014399 -4 Z"/><circle class="node overlay" r="86.15853069855251" stroke="none" fill="rgba(255, 255, 255, 0)" cx="471.48809814453125" cy="-203.80128479003906"/><circle class="node ring" r="91.15853069855251" fill="none" stroke="rgba(255, 255, 255, 0)" stroke-width="10px" cx="471.48809814453125" cy="-203.80128479003906"/><path class="relationship overlay" fill="rgba(255, 255, 255, 0)" stroke="rgba(255, 255, 255, 0)" stroke-width="10px" transform="translate(-161.53356170654297,151.4422264099121) rotate(-90)" d="M 108.80140373014399 4 L 389.9983083569905 4 L 389.9983083569905 16 L 421.9983083569905 0 L 389.9983083569905 -16 L 389.9983083569905 -4 L 108.80140373014399 -4 Z"/><circle class="node overlay" r="118.82233602167163" stroke="none" fill="rgba(255, 255, 255, 0)" cx="-1010.367772102356" cy="151.4422264099121"/><circle class="node ring" r="123.82233602167163" fill="none" stroke="rgba(255, 255, 255, 0)" stroke-width="10px" cx="-1010.367772102356" cy="151.4422264099121"/><path class="relationship overlay" fill="rgba(255, 255, 255, 0)" stroke="rgba(255, 255, 255, 0)" stroke-width="10px" transform="translate(-161.53356170654297,151.4422264099121) rotate(180)" d="M 108.80140373014399 4 L 687.0118743741414 4 L 687.0118743741414 16 L 719.0118743741414 0 L 687.0118743741414 -16 L 687.0118743741414 -4 L 108.80140373014399 -4 Z"/><circle class="node overlay" r="118.82233602167163" stroke="none" fill="rgba(255, 255, 255, 0)" cx="-1010.367772102356" cy="-528.535493850708"/><circle class="node ring" r="123.82233602167163" fill="none" stroke="rgba(255, 255, 255, 0)" stroke-width="10px" cx="-1010.367772102356" cy="-528.535493850708"/><path class="relationship overlay" fill="rgba(255, 255, 255, 0)" stroke="rgba(255, 255, 255, 0)" stroke-width="10px" transform="translate(-1010.367772102356,-528.535493850708) rotate(90)" d="M 129.82233602167162 4 L 518.1553842389485 4 L 518.1553842389485 16 L 550.1553842389485 0 L 518.1553842389485 -16 L 518.1553842389485 -4 L 129.82233602167162 -4 Z"/><path class="relationship overlay" fill="rgba(255, 255, 255, 0)" stroke="rgba(255, 255, 255, 0)" stroke-width="10px" transform="translate(-161.53356170654297,-400.37841796875) rotate(146.97241206309104)" d="M 129.82233602167162 4 L 850.6131139210718 4 L 850.6131139210718 16 L 882.6131139210718 0 L 850.6131139210718 -16 L 850.6131139210718 -4 L 129.82233602167162 -4 Z"/></g></svg>